<svg xmlns="http://www.w3.org/2000/svg" id="Layer_2" data-name="Layer 2" viewBox="0 0 1277.68 780.26"><defs><style>.cls-1{fill:#fff}</style></defs><g id="Layer_1-2" data-name="Layer 1"><path d="M1141.79 626.85c-3.32 22.27-9.92 42.18-21.12 60.71-18.96 31.41-45.19 55.85-82.56 69.01-46.56 16.39-90.76 4.04-118.91-32.81-.8-1.04-1.63-2.07-3.13-3.97-16.97 12.75-35.84 20.53-58 19.66-22.42-.88-39.74-9.41-50.96-28.15-19.81 13.65-41.23 20.64-65.61 16.09-24.25-4.53-40.11-18.58-51.08-38.4-10.29 4.68-20.06 9.63-31.72 8.78-12.14-.89-20.64-6.43-26.49-16.88-13.1 11.37-27.68 19.14-45.41 21.01-17.98 1.9-34.22-1.29-47.6-12.98-45.91 56.83-103.97 69.11-173.82 42.51-3.15 13.66-11.75 23.67-27.88 27.03-15.79 3.29-28.84-1.54-40.63-11.84-23.33 28.75-53.44 41.65-90.98 28.47-36.45-12.8-50.99-40.21-52.25-75.56-5.27 1.27-10.22 2.7-15.27 3.65-25.38 4.78-47.85-.28-66.08-16.93-23.18-21.17-25.84-54.57-7.06-80.86 2.15-3.01 4.53-5.89 7.38-9.56-4.11-2.06-8.09-3.89-11.89-5.97-22.01-12.05-34.13-29.04-30.72-53.27 1.63-11.59 7.41-21.76 15.47-30.85 20.59-23.21 47.94-36.53 79.18-42.96 16.32-3.36 33.24-4.21 50.92-6.31-10.56-12.51-15.42-27.27-12.22-44.87-3.64.88-6.22 1.4-8.74 2.13-35.54 10.43-70.11-7.87-77.34-40.89-3.16-14.43-1.64-28.44 4.59-42.12 1.06-2.32 1.94-4.71 3.16-7.69-5.78-.12-10.74.12-15.61-.37-23.23-2.34-40.9-12.94-53.28-30.52C2.58 272.88-1.84 251.51.67 228.76c3.06-27.83 14.53-52.41 36.12-72.74 18.61-17.52 40.9-27.65 68.22-26.69 2.1.07 4.23-.25 7.52-.47-.19-2.87-.45-5.66-.55-8.46-1-29.89 24.17-48.56 56.01-40.66 10.46 2.59 20.04 7.97 30.26 12.17C210.89 36.22 248.63 3.85 312.39.22c47.98-2.73 80.49 19.32 102.7 66.05 15.83-11.85 33.55-17.8 53.79-13.49 20.38 4.34 33.39 16.38 40.56 34.7 2.12-2 3.44-3.06 4.51-4.29 31.85-36.67 95.38-49.74 142.33-34.71 22.07 7.07 39.34 19.35 49.85 40.16 24-22.75 51.98-36.91 85.79-39.93 34.5-3.09 64.57 4.91 88.39 30.07 1.78-2.62 3.21-4.68 4.58-6.76C913.5 28.44 955.34 6.6 1011.1 8.93c47 1.96 85.68 32.13 95.9 73.53.61 2.45 1.43 4.86 2.32 7.83 5.45-2.18 10.14-4.49 15.12-5.99 37.49-11.31 81.76 16.14 83.74 51.79.86 15.55-5.61 27.92-19.82 36.96-1.68 1.07-3.36 2.15-5.37 3.43 6.66 4.66 13.24 8.55 18.86 13.38 5.9 5.08 11.62 10.59 16.12 16.7 27.83 37.81 11.13 83.81-36.35 99.73-34.47 11.56-67.06 6.64-97.83-9.94-3.59-1.94-7.02-4.12-11.72-6.89-1.25 12.84-8.04 21.39-21.07 26.58 30.19 17.04 32.82 42.05 25.7 71.21 4.53-2.29 7.52-3.79 10.51-5.3 17.13-8.69 35.31-13.34 54.83-10.9 22.34 2.8 37.36 13.58 42.55 34.18.3 1.2 1.07 2.3 1.63 3.46 7.81-.52 15.35-1.87 22.71-1.35 30.67 2.16 50.68 17.73 61.88 42.8 16.8 37.59 1.95 85.09-33.75 110.21-10.76 7.57-22.99 12.13-36.66 15.16-.51 14.51-3.05 28.53-15.07 39.53-11.89 10.88-26.77 13.19-43.5 11.82ZM89.66 591.9c-.56 1.93-.54 2.71-.96 3.15-3.06 3.21-6.29 6.28-9.3 9.52-18.34 19.78-20.79 46.99-6.1 67.17 14.61 20.06 42.46 28.26 69.22 20.23 4.08-1.22 7.89-3.17 11.88-4.67 6.98-2.61 10.99-.29 11.24 6.59.09 2.59-.37 5.2-.42 7.8-.44 23.7 9.14 43.17 30.16 57.18 17.52 11.68 37.19 14.54 58.06 7.79 15.18-4.92 26.34-14.38 34.45-27.04 6.47-10.1 8.92-10.21 16.38-1.27 5.47 6.56 12.7 10.18 21.7 11.12 16.08 1.67 30.87-10.44 27.48-23.93-.32-1.26-.46-2.58-.42-3.87.21-5.8 4.38-8.03 10.17-5.42 1.26.57 2.33 1.48 3.5 2.22 54.5 34.65 139.54 12.22 163.97-39.89 3.97-8.47 7.53-8.64 13.08-1.14 5.93 8.02 14.09 12.75 24.45 14.23 24.16 3.46 43.66-4.17 58.8-21.59 2.81-3.24 5.95-6.16 10.69-5.34 4.65.81 3.52 5.03 4.28 8.03l.24.95c2.58 9.91 9.96 15.58 20.81 13.97 6.82-1.01 14.09-3.48 19.63-7.19 12.43-8.3 12.04-8.78 17.93 3.83 10.19 21.84 31.79 35.06 56.86 34.49 17.69-.41 32.55-7.09 45.56-17.86 7.5-6.2 10.03-5.62 13.4 2.92 6.1 15.45 18.97 23.12 36.08 25.24 21.17 2.62 39.65-3.4 55.33-16.73 2.1-1.79 3.85-3.96 6.09-5.57 3.47-2.49 6.66-2.14 8.83 1.58.83 1.43 1.31 3.03 2.19 4.42 16.09 25.46 39.7 40.21 72.85 40.61 27.87.34 51.9-9.53 72.97-25.53 33.57-25.5 52.77-58.34 59.31-97.3.43-2.57.55-5.2 1.17-7.74 1.36-5.54 3.48-6.94 9.8-6.7 1.78.07 3.53.51 5.31.71 21.12 2.45 37.57-8.28 41.52-27.32.86-4.13 1.01-8.41 1.01-12.62-.01-9.32 0-9.7 10.18-11.54 16.86-3.06 31.09-10.4 42.26-22.17 23.07-24.3 30.95-52.09 21.82-82.91-9.57-32.3-38.8-47.77-75.61-40.85-9.65 1.81-11.94.29-13.37-8.87-2.55-16.33-12.67-26.14-30.58-29.33-19.8-3.53-37.87 1.57-54.27 11.32-8.62 5.13-15.88 12.19-23.61 18.53-2.88 2.36-5.86 4.4-9.53 2.41-4.12-2.23-2.55-5.5-.72-8.52 1.05-1.72 2.41-3.35 3.08-5.17 3.61-9.86 8.48-19.59 10.27-29.71 4.52-25.67-11.02-44.43-39.04-49.01-2.11-.34-4.84 0-6.19-1.09-1.9-1.53-3.61-4-3.89-6.24-.36-2.9 2.14-4.63 5.51-4.79 4.66-.23 9.35-.18 13.96-.72 18.1-2.1 25.48-13.17 19.18-28.65-1.11-2.72-3.15-5.19-3.83-7.98-.53-2.19-.58-5.5.84-6.86 2.75-2.63 5.99-.87 8.36 1.38 2.21 2.1 4.15 4.43 6.28 6.61 26.61 27.1 72.74 37.25 109.02 24 41.02-14.98 54.02-54.35 28.56-86.62-8.89-11.27-20.51-19.67-34.06-25.95-4.09-1.89-8.97-3.12-8.9-8.51.08-6.01 5.99-5.76 9.99-7.26 16.33-6.12 24.51-18.29 22.61-34.09-2.4-19.94-21.91-37.92-46.02-41.78-14.4-2.3-27.76-.19-38.91 9.74-2.6 2.31-6.83 5.34-9.54 4.84-5.16-.95-3.72-6.28-4.09-9.99-3.66-37.53-31.06-67.18-71.48-75.82-41.64-8.9-77.92 2.04-109.39 27.94-12.75 10.5-21.88 23.37-28.7 37.67-3.86 8.08-8.77 8.6-14.96 1.94-.69-.74-1.22-1.59-1.83-2.39-9.54-12.47-22.79-20.29-38.57-24.73-21.54-6.07-43.12-5.02-64.56 1.27-22.49 6.59-41.41 18.01-56.44 34.79-7.04 7.86-11.76 6.95-15.97-2.14-2.47-5.33-5.1-10.78-8.82-15.4-9.13-11.3-21.84-18.42-36.43-22.73-30.63-9.05-60.83-6.62-90.22 5.16-19.9 7.98-36.28 19.92-46.9 37.75-1.49 2.51-4.84 4.91-7.84 5.72-4.17 1.12-6.18-1.7-6.91-8.68-1.82-17.4-12.14-28.95-30.1-34.13-18.42-5.32-34.62-.65-48.03 12.16-1.98 1.89-3.48 4.22-5.57 6-3.49 2.98-7.67 2.37-9.62-1.47-1.02-2-1.14-4.38-1.65-6.59-4.97-21.71-17.33-38.98-38.12-50.61-28.39-15.89-58.72-17.07-89.77-6.43-42.71 14.63-68.5 51.99-66.64 84.72.21 3.66-.08 7.6-4.38 9.26-4.69 1.81-6.99-1.95-9.69-4.41-10.58-9.64-22.71-16.59-38.12-17.98-19.12-1.73-34.08 9.51-34.87 26.94-.26 5.74 1.24 11.57 2.26 17.3 1.27 7.14-1.5 10.16-9.03 8.65-27.9-5.6-51.07 2.93-70.41 20.91-27.45 25.53-38.3 56.5-33.85 91.41 2.32 18.19 10.22 34.47 25.86 46.67 15.69 12.24 33.95 15.83 54.2 11.32 3.76-.84 7.8-1.34 9.33 2.2.94 2.17-.5 5.32-1.24 7.95-.33 1.18-1.6 2.14-2.39 3.24-7.72 10.72-11.75 22.46-11.25 35.16.74 18.83 8.74 34.18 27.92 42.81 18.54 8.35 36.16 4.7 52.67-5.87 2.06-1.32 3.91-3.12 6.18-3.87 1.73-.57 4.59-.47 5.81.5 1.24.98 1.73 3.49 1.41 5.17-.42 2.17-2 4.15-3.01 6.24-8.64 17.74-4.07 37 11.88 49.59 2.94 2.33 6.68 3.94 9.19 6.56 1.53 1.6 2.58 4.94 1.73 6.68-.82 1.69-4.25 3.02-6.67 3.27-2.72.28-5.57-.95-8.4-1.31-41.75-5.27-79.77 3.61-113.83 26.57-10.83 7.3-19.66 16.37-25.6 27.52-11.06 20.77-5.69 41.2 14.84 54.1 6.08 3.82 13.24 6.22 19.84 9.37 3.23 1.54 6.34 3.3 9.17 4.78Z" class="cls-1"/><path d="M337.64 571.69c9.58 6.91 17.72 11.74 24.44 17.85 14.05 12.79 24.7 27.46 26.85 46.26 1.92 16.75-3.98 30.83-17.3 42.44-25.23 22-55.49 29.22-89.31 25.31-5.66-.65-11.25-1.88-16.78-3.16-25.23-5.8-44.09-19.1-56.73-39.65-1.72-2.8-3.38-5.64-4.71-7.87-9.58 0-18.56.76-27.25-.26-6.9-.81-14.24-2.7-20.04-6.02-20.94-11.98-33.4-28.97-36.6-51.99-4.16-29.94 9.22-53.24 31.63-73.68 6.9-6.3 15.77-9.17 25.15-10.37 10.7-1.38 19.68 4.28 22.84 13.76 3.1 9.29-.29 17.82-8.79 21.91-7.01 3.38-13.99 3.19-20.25-1.06-6.15-4.18-7.28-10.04-4.97-16.59.39-1.11.81-2.22 1.7-4.66-2.64 1.01-3.97 1.26-4.97 1.93-27.25 18.3-39.33 53.81-28.09 82.44 8.29 21.11 30.7 35.92 53.56 35.26 3.47-.1 6.93-.81 11.18-1.34-2.99-17.99-3.31-34.57 14.08-46.97 16.14-11.5 33.96-13.1 53.73-8.72 4.26-7.02 8.35-13.77 12.86-21.2-3.9-1.3-6.83-2.2-9.68-3.25-3.96-1.46-7.94-2.9-11.77-4.62-3.17-1.43-5.15-3.75-3.13-7.1 1.7-2.81 4.46-2.89 7.45-1.72 3.28 1.28 6.54 2.6 9.91 3.66 3.69 1.17 7.48 2.07 12.47 3.42 13.54-25.09 21.01-51.75 29.17-78.91-4.26-1.54-8.02-2.48-11.31-4.18-6.13-3.17-12.67-6.11-17.76-10.39-7.02-5.9-7.68-15.2-2.48-21.27 1.26-1.47 4.18-2.54 6.22-2.43 1.26.07 3.32 2.76 3.25 4.23-.19 4.36-3.99 9.37 1.07 12.72 5.65 3.74 12.16 6.42 18.38 9.43 1.14.55 2.68.45 4.94.78 1.12-3.98 2.2-7.67 3.19-11.38.85-3.19 2.55-5.74 6.6-4.87 3.84.82 4.54 3.74 3.9 6.94-.75 3.78-1.61 7.54-2.59 12.12 10.56 2.19 20.71 3.89 30.58 6.43 12.33 3.16 24.65 6.51 36.54 10.75 6.51 2.32 12.65 6.08 18.05 10.17 16.57 12.55 19.01 30.8 6.06 46.92-11.78 14.67-28.11 23.47-47.61 26.54-10.43 1.64-21.17 1.57-33.65 2.4ZM213.9 647.53c6.9 13.47 15.12 24.07 27.33 32.04 13.13 8.58 28.12 12.52 43.86 14.34 28.82 3.34 54.71-3.06 76.99-20.88 18.15-14.51 20.5-34.58 10.51-53.3-14.61-27.38-40.48-41.58-71.59-49.46-3.34-.85-6.9-.99-10.77-1.51-4.48 7.45-8.74 14.52-13.74 22.85 3.02 1.84 6.05 3.12 8.25 5.14 7.35 6.75 13.43 14.31 14.98 24.08 1.03 6.5-.54 12.31-6.79 16.49-4.01 2.68-8.05 2.33-12.07.2-4.49-2.38-6.32-6.08-5.65-10.67.66-4.54 3.73-6.84 8.81-6.97 1.18-.03 2.35-.46 4.12-.84-4.16-8.28-8.75-14.94-17.39-19.11-16.69 17.85-31.79 36.89-56.85 47.59Zm83.74-89.02c4.3.83 9.11 2.55 13.93 2.54 18.57-.01 37.21.24 55.69-1.18 15.89-1.22 29.23-8.74 39.95-19.55 13.43-13.54 12.04-27.85-3.66-38.64-11.23-7.72-24.25-12.18-37.85-15.2-11.08-2.46-22.27-4.55-33.43-6.71-2.27-.44-4.66-.44-6.37-.58-9.53 26.73-18.78 52.69-28.27 79.33Zm-87.59 78.03c15.51-3.93 43.27-28.08 47.74-41.12-17.88-3.14-32.78.8-42.75 11.88-7.93 8.82-7.91 18.82-4.99 29.24ZM172.95 285.16c-9.86-43.44 27.41-64.06 68.2-55.9 1.93-3.05 4.09-6.35 6.13-9.71 2.07-3.41 4.03-6.88 6.41-10.98-5.82-2.04-11.06-3.79-16.22-5.71-2.3-.85-4.96-1.62-6.5-3.19-1.35-1.39-2.45-4.37-1.66-5.71.82-1.4 4.27-2.64 6.11-2.25 4.48.94 8.64 2.99 13.02 4.35 3.31 1.03 6.77 1.67 10.95 2.67 13.16-25.32 20.84-51.68 28.95-78.84-4.26-1.47-8.05-2.33-11.33-4-6.15-3.14-12.69-6.08-17.8-10.35-6.82-5.7-7.67-14.12-3.02-20.46 1.25-1.71 4.43-2.85 6.81-3.01.91-.06 2.67 3.28 2.96 5.21.5 3.35-1.32 7.84.49 10.02 3.05 3.66 7.97 6.2 12.5 8.62 2.99 1.6 6.67 2.15 11.28 3.55 1.28-4.25 2.51-8.16 3.62-12.1.93-3.31 3.17-5.77 6.79-4.33 1.87.74 3.54 3.94 3.5 6.03-.06 3.81-1.45 7.62-2.55 12.63 8.08 1.72 16 3.14 23.76 5.11 14.06 3.57 28.21 7 41.94 11.43 6.59 2.12 12.78 5.85 18.35 9.78 18.11 12.76 20.47 33.53 5.72 49.92-12.88 14.31-29.7 22.71-49.71 25.31-9.19 1.19-18.53 1.33-29.81 2.07 3.49 2.42 5.45 4 7.63 5.26 15.38 8.9 26.99 20.8 35.57 35.43 14.06 23.95 11.26 51.28-15.69 70.81-23.62 17.11-50.49 23-79.85 20.37-6.38-.57-12.69-1.95-18.93-3.32-25.71-5.63-44.93-19.03-57.76-39.93-1.72-2.81-3.43-5.62-5.45-8.96-7.43.49-14.88 1.29-22.33 1.4-9.18.13-17.78-2.28-25.29-6.91-20.12-12.41-32.34-28.97-35.46-51.68-4.07-29.6 8.84-52.72 30.89-72.99 7.92-7.29 17.95-10.97 29.18-11.01 10.56-.04 18.5 6.81 20.25 16.77 1.6 9.09-2.91 16.72-11.75 19.78-6.97 2.42-13.69 1.8-19.14-2.66-5.6-4.57-6.53-10.52-3.43-16.92.42-.87.79-1.77 1.86-4.18-2.91 1.28-4.9 1.69-6.17 2.79-16.31 14.06-29.54 29.79-31.32 50.99-2.01 23.98 5.89 44.2 27.76 58.78 12.06 8.04 25.4 9.03 40.54 6.05Zm15.13 5.47c10.45 22.14 27.08 36.15 51.09 42.66 6.81 1.85 13.87 3.24 20.94 3.96 26.73 2.7 51.21-2.61 72.65-18.33 21.98-16.12 24.73-37.6 12.48-58.44-14.95-25.43-39.52-39-69.03-46.66-3.68-.96-7.58-1.26-11.89-1.95-4.53 7.6-8.76 14.69-13.88 23.27 2.94 1.71 6.06 2.92 8.28 4.93 7.67 6.95 13.87 14.76 15.06 25.02.63 5.44-.59 10.42-5.17 14.32-3.8 3.24-9.62 3.71-13.94 1.21-4.31-2.49-6.34-6.13-5.39-10.78 1.02-5.01 4.61-7.06 10.12-6.66.73.05 1.55-.74 2.67-1.32-3.95-7.76-8.72-14.32-17.35-18.67-16.48 17.99-31.76 36.86-56.64 47.45Zm112.04-168.75c-9.61 27.01-18.93 53.18-28.38 79.71 2.15.58 4.45 1.54 6.85 1.78 21.7 2.17 43.48 3.09 65.18-.39 12.6-2.02 23.73-7.46 33.16-15.41 19.4-16.34 17.51-33.88-4.87-46.11-22.15-12.11-47.56-14.36-71.94-19.57ZM184.88 280.97c21.48-9.7 34.82-25.44 48.69-41.78-33.04-7.42-57.17 13.35-48.69 41.78ZM753.61 654c-1.19.39-1.54.46-1.86.61-36.81 17.4-74.17 6.03-93.02-27.01-14.71-25.79-11.38-50.67 1.81-75.79 4.01-7.65 10.64-13.11 19.02-16.8 12.96-5.71 26.82.18 30.2 12.8 2.35 8.79-4.21 18.02-14.2 19.99-10.46 2.06-17.73-2.83-19.27-12.99-.19-1.26-.32-2.53-.57-4.58-1.58 1.16-2.9 1.74-3.59 2.69-17.73 24.45-16.51 57.59 2.89 80.6 15.19 18.02 42.77 25.01 64.22 16.18 2.21-.91 4.17-2.31 6.23-3.47-24.46-38.69 5.12-65.41 42.72-69.86 1.23-6.86 2.53-14.07 4.03-22.44-4.66.08-8.14.26-11.6.16-3.57-.1-7.34.08-10.6-.93-2.14-.66-3.53-3.23-5.26-4.94 2.18-1.3 4.22-3.32 6.57-3.74 3.45-.61 7.13.03 10.71-.07 3.53-.09 7.06-.44 11.72-.74 3.34-26.23 1.06-51.94-1.09-78.7-4.39-.16-8.27.08-11.98-.52-6.61-1.07-13.51-1.83-19.57-4.21-8.03-3.15-11.73-10.66-9.78-17.65.51-1.82 2.76-4.29 4.49-4.52 1.62-.21 4.63 1.82 5.24 3.44 1.33 3.53-.09 8.39 4.84 10.05 4.92 1.66 10.21 2.56 15.43 3.32 2.66.39 5.52-.27 9.19-.51-.29-4.31-.94-8.14-.62-11.92.16-1.88 2.1-3.66 3.23-5.49 2.19 1.22 5.57 2.02 6.33 3.77 1.51 3.49 1.59 7.51 2.35 11.8 10.54-.7 20.77-1.66 31.01-1.98 13.56-.42 27.14-.6 40.7-.34 4.54.09 9.16 1.47 13.5 2.84 22.02 6.97 30.83 24.46 22.25 44.46-6.07 14.15-16.34 25.42-30.77 33.17-7.09 3.81-14.83 6.61-22.29 9.83-2.13.92-4.31 1.75-8.52 3.46 4.27 1.12 6.44 1.79 8.65 2.25 18.64 3.88 34.44 12.27 47.77 24.49 13.8 12.65 24.3 34.38 11.09 58.2-14.26 25.71-37.52 41.09-67.69 47.63-11.38 2.47-23.46 3.31-35.16 3.09-18.86-.35-35.4-7.08-49.62-18.22-2.95-2.31-5.8-4.73-9.09-7.41Zm7.95-7.05c14.45 13.83 30.35 22.34 49.83 22.96 12.01.38 24.52-.53 36.17-3.24 25.9-6.02 46.16-19.63 58.08-42.02 9.11-17.11 5.49-34.05-9.28-47.31-23.27-20.9-52.05-26.76-83.78-24.59-3.11.21-6.17 1.17-9.63 1.86-1.4 8.06-2.71 15.63-3.99 23.04 4.04 1.56 7.38 2.23 9.86 3.93 6.75 4.61 13.74 9.14 19.49 14.69 4.88 4.71 5.67 11.14 2.19 17.33-2.15 3.83-5.85 5.79-10.62 5.36-5.04-.45-8.9-2.66-10.17-7.31-1.15-4.23.11-7.69 5.01-9.59 1.1-.43 1.94-1.44 3.35-2.54-6.43-5.66-12.69-10.1-21.71-11.51-9.08 20.89-16.12 42.36-34.8 58.95ZM806.1 542.5c3.93-.26 8.05.21 11.59-.89 16.96-5.27 33.85-10.78 50.59-16.63 4.25-1.49 8.1-4.28 11.71-6.94 9.13-6.74 16.06-15.06 19.9-25.19 5.29-13.94-.42-25.52-15.57-30.36-6.63-2.12-13.85-3.15-20.91-3.73-19.43-1.59-38.5 2.41-57.68 4.49-.56.06-1.04.83-1.46 1.2.61 25.68 1.21 51.28 1.85 78.04Zm-22.38 45.7c-15.48 0-29.82 9.16-35.4 22.6-3.78 9.1-.67 20.54 7.33 26.96 12.39-10.84 24.46-32.14 28.07-49.56ZM894.08 235.37c-5.08 6.63-8.43 11.68-12.54 16.16-3.65 3.97-7.65 8.01-12.37 10.79-13.3 7.82-26.26 2.46-28.29-11.74-.76-5.34-.38-11.21 1.23-16.4 2.81-9.05 6.96-17.77 10.58-26.61.73-1.79 1.64-3.52 2.61-5.56-6.32-1.32-12.12-2.53-18.19-3.8-2.68 4.03-5.05 8.05-7.91 11.77-3.59 4.66-8.17 8.62-14.58 9.32-2.21.24-5.25-1.43-6.8-3.09-.64-.68 1.17-4.83 2.7-5.36 11.31-3.93 14.32-13.14 18.04-21.97.25-.6.31-1.27.51-1.9 1-3.13 1.66-6.78 6.18-7.1 3.93-.27 5.39 2.51 6.28 5.51 1.41 4.75 5.99 5.23 10.19 5.63 3.88.38 7.87-.22 11.8-.1 5.96.18 8.56 3.38 6.51 8.36-1.25 3.02-3.44 5.73-5.14 8.61-6.51 10.99-12.42 22.16-13.32 34.87-.33 4.6-1.2 10 3.87 12.27 5.76 2.58 10.41-1.58 13.71-5.42 5.74-6.7 11.44-13.55 16-20.93 8.1-13.1 15.34-26.63 22.94-39.98 1.91-3.36 3.07-8.5 8.76-6.5 5.43 1.91 3.01 6.44 1.85 10.16-4.18 13.48-8.71 26.88-12.35 40.48-1.91 7.12-1.06 7.89 2.88 13.69 5.54-.54 8.52-4.36 11.42-8 13.15-16.54 22.72-34.83 31.79-53.35 1.76-3.58 3.05-7.44 5.45-10.63 1.32-1.75 4.49-2.36 6.82-3.49 1.22 2.13 3.7 4.39 3.41 6.36-.8 5.44-2.78 10.76-4.25 16.13-.42 1.55-.7 3.13-1.58 7.09 7.45-9.3 13.14-16.9 19.45-24.06 3.78-4.29 8.07-8.49 12.97-11.63 7.74-4.96 13.78-2.32 15.42 6.1.49 2.51.39 5.12.64 8.99 2.21-2.03 3.88-3.33 5.25-4.85 5.02-5.58 9.67-11.45 14.99-16.76 3.09-3.09 6.87-5.94 10.93-7.83 8.39-3.9 15.61-.24 15.52 8.2-.06 5.71-1.92 11.51-3.64 17.11-2.21 7.21-5.49 14.17-7.52 21.42-1.07 3.8-.45 7.98-.6 12.11 8.5.53 11.73-4.33 14.99-8.36 5.97-7.38 11.03-15.36 16.96-22.77 8.04-10.05 15.81-20.42 25.11-29.46 6.48-6.3 14.77-11.59 23.25-15.53 10.43-4.83 22.08-1.39 28.84 6.57 2.02 2.38 3.82 4.91 1.25 7.89-2.71 3.14-5.48 1.51-8.56.28-3.5-1.4-7.3-2.81-11.05-2.96-6.65-.27-9.39 3.21-6.89 8.81 2.39 5.37 5.64 10.44 8.84 15.47 6.14 9.64 10.84 19.73 11.35 31.05.62 13.84-2.78 26.56-14.25 36.67-2.31 2.04-4.85 3.97-7.6 5.47-14.95 8.2-32.12 6.79-41.25-3.22-11.08-12.16-10.84-30.44.67-42.15 3.96-4.03 8.52-7.23 15.01-5.91 6.59 1.34 10.88 7 10.08 13.08-.81 6.12-6.27 11.39-12.63 11.54-3.11.08-6.24-.88-9.37-1.37-.28.57-.8 1.15-.8 1.73 0 8.93 1.97 17.45 12.25 20.72 10.58 3.36 19.98-.74 27.12-7.94 11.2-11.29 12.12-24.72 7.87-38.54-1.52-4.94-4.22-9.6-6.76-14.22-4.55-8.27-9.38-16.42-14.54-25.4-3.68 3.53-8.08 6.92-11.36 11.04-10.75 13.53-20.89 27.46-31.68 40.96-3.97 4.97-8.45 9.97-13.8 13.61-11.5 7.82-24.31 2.59-23.96-10.2.24-8.88 3.61-17.78 6.07-26.57 1.72-6.15 4.25-12.12 6.42-18.17-.79-.45-1.57-.91-2.36-1.36-2.68 2.33-5.55 4.49-8 7-17.17 17.62-29.35 37.95-39.6 59.33-1.28 2.67-2.17 5.91-4.4 7.69-2.07 1.65-6.06 2.81-8.53 2.16-3.74-.99-3.09-4.44-1.92-7.45 4.19-10.77 8.55-21.5 12.31-32.39 2.21-6.41 3.41-13.1 5.29-20.55-6.17.87-7.88 4.35-10.16 6.96-14.67 16.77-25.94 35.37-35.82 54.7-1.2 2.35-2.18 5.09-4.16 6.74-1.55 1.29-4.9 2.08-6.74 1.44-1.64-.57-3.11-3.35-3.22-5.24-.19-3.14.77-6.35-.12-10.22-2.83 4.01-5.44 8.16-8.54 11.98-3.18 3.92-6.31 8.12-10.41 11.13-9.78 7.17-21.99 3.3-25.15-7.61-.79-2.74-.92-5.65-1.65-10.49ZM1033.41 539.78c16.2-7.99 26.67-18.45 34.37-31.37 1.37-2.3 2.15-5.16 4.15-6.79 1.77-1.44 5.36-2.6 7.23-1.91 1.85.69 3.36 3.79 3.53 5.95.16 2.04-1.73 4.19-2.52 6.35-4.41 12.06-9.32 24-12.96 36.24-2.67 8.97-1.49 11.09 4.29 17.87 3.21-2.4 6.73-4.52 9.55-7.23 11.04-10.6 18.68-23.25 25.44-36.27 4.25-8.18 7.57-16.75 11.21-25.18 1.36-3.16 2.69-6.56 7.36-5.51 4.83 1.08 4.16 4.62 3.08 7.9-5.78 17.49-11.12 35.11-17.52 52.42-15.8 42.75-39.03 82.18-69.12 118.11-9.73 11.63-21.66 21.88-33.42 31.95-9.98 8.55-22.57 12.64-36.32 13.25-14.7.65-24.36-5.43-29.17-18.13-9.22-24.33-.08-47.31 20.6-65.69 9.08-8.07 19.96-14.39 32.8-16.04 5.35-.69 11.47.23 16.5 2.06 6.45 2.34 8.82 9.09 6.76 14.76-2.13 5.86-9.18 9.67-16.32 8.79-4.83-.59-7.83-3.08-8.49-7.45-.33-2.17.02-4.44.08-7.6-8.1 1.64-14.43 5.7-20.52 9.97-20.01 14.04-28.53 37.33-21.19 57.39 3.41 9.31 9.42 13.1 20.18 12.13 11.81-1.06 21.89-5.73 30.91-12.79 17.1-13.4 31.08-29.2 43.21-46.3 17.59-24.78 33.44-50.43 45.34-77.91.9-2.07 1.71-4.17 1.49-7.07-3.67 3.13-7.14 6.49-11.04 9.36-11.26 8.3-23.69 4.42-26.55-8.43-.9-4.06-.73-8.41-.45-12.59.26-3.82 1.33-7.61 2.09-11.71-9.77 4.66-19.19 8.86-28.23 13.66-2.15 1.14-3.01 4.28-4.53 6.46-4.61 6.61-8.69 13.61-14.08 19.66-3.74 4.19-8.91 7.71-14.14 10.35-9.04 4.57-18.47 2.18-24.53-5.41-1.86-2.32-3.24-4.96-5.52-8.5-2.2 2.48-3.9 4.74-5.98 6.66-6.51 6.04-12.97 12.14-19.84 17.83-2.59 2.15-6.5 2.2-8.18-1.13-.75-1.49.05-4.92 1.44-5.83 18.89-12.35 27.25-31.88 40.5-48.05 1.93-2.36 3.49-4.96 5.26-7.43.98-1.37 1.71-3.37 3.11-3.94 9.93-4.08 12.14-13.92 18.89-20.31 1.49-1.41 2.98-2.88 4.69-4.05 11.47-7.83 24.24-3.88 27.08 8.72 1.05 4.67.5 9.67.48 14.53 0 2.21-.5 4.43-.97 8.24Zm-41.61-.77c-3.06 4.64-7.09 9.68-9.83 15.23-2.15 4.35-3.31 9.28-3.83 14.04-.52 4.72 1.78 8.89 6.54 11.38 5.03 2.63 9-.15 12.58-2.82 8.44-6.31 14.34-14.28 17.79-22.8-7.65-4.95-14.74-9.53-23.25-15.03Zm28.88 4.31c1.24-6.42 2.79-11.69 3.13-17.01.27-4.27 1.53-10.14-4.83-11.5-5.67-1.21-8.58 3.76-11.69 7.29-.67.76-1.19 1.64-1.65 2.52-3.32 6.37-1.87 11.4 4.74 14.95 2.64 1.42 5.75 2.12 10.3 3.74ZM525.5 623.53c-4.07 3.77-6.5 6.11-9.04 8.36-3.61 3.2-7.04 6.64-11.01 9.42-13.04 9.14-24.79 4.73-26.68-9.82-.27-2.12-.57-4.24-1.02-7.64-3.42 3.16-5.64 5.69-8.38 7.63-5.08 3.6-10.04 7.71-15.8 10.08-12.06 4.96-22.58-1.3-23.35-13.16-.12-1.91.14-3.84.27-7.09-3.12 2.19-5.41 3.54-7.36 5.21-3.94 3.37-7.72 6.88-11.52 10.38-2.83 2.61-5.92 6.02-9.82 2.35-3.54-3.34-.66-6.72 2.27-9.32 8.76-7.79 17.37-15.75 26.56-23.1 9.47-7.57 19.29-14.82 29.46-21.58 5.45-3.62 11.82-6.21 18.02-8.74 3.49-1.42 7.42-.93 9 2.87 1.44 3.45-1.37 5.36-4.34 6.88-5.34 2.72-10.73 5.36-16.03 8.14-11.85 6.19-18.91 15.89-23.76 27.09-.9 2.08-1.51 4.42-1.5 6.63.02 4.01 3.18 6.27 7.18 4.49 4.75-2.11 9.37-4.97 13.13-8.34 11.42-10.22 20.05-22.28 26.49-35.59.58-1.2 1.16-2.39 1.7-3.61 1.64-3.73 3.51-8.25 8.94-6.11 5.41 2.13 2.37 6.5 1.26 10.19-3.5 11.62-7.13 23.22-10.07 34.96-.88 3.49.32 7.39.7 13.17 4.82-2.68 8.36-4.01 10.98-6.23 5.79-4.92 11.41-10.05 16.56-15.52 15.97-16.95 35.23-29.95 57.19-39.62 4.64-2.04 7.12-4.77 9.05-8.92 10.34-22.27 20.84-44.49 31.61-66.59 2.75-5.65 6.49-10.94 10.15-16.18 1.7-2.43 3.96-4.75 6.5-6.46 6.56-4.4 13.2-2.03 13.94 5.31.48 4.74-.28 9.78-1.53 14.47-11.72 44.09-29.02 86.1-58.23 123.59-.82 1.06-1.53 2.19-2.2 3.17 5.66 13.05 13.11 15.38 25.26 7.19 5.39-3.64 9.6-8.76 14.2-13.32 1.19-1.18 1.77-2.84 2.77-4.2 1.8-2.44 4.62-4.11 7.15-2.06 1.61 1.31 2.82 4.96 1.94 6.56-7.54 13.76-18.72 24.02-35.8 27.49-6.36 1.29-12.05-.94-16.79-4.76-2.63-2.12-4.89-4.61-8.07-7.65-3.15 2.45-6.11 5.2-9.54 7.31-5.33 3.28-10.64 6.97-16.56 8.98-12.37 4.22-23.21-2.64-24.09-14.58-.24-3.2.09-6.43.2-11.72Zm49.75-35.04c-5.77 2.71-10.47 4.18-14.2 6.81-10.67 7.52-18.85 16.93-22.92 28.78-1.15 3.34-1.81 6.98-1.69 10.45.18 5.18 4.01 7.63 9.43 6.06 9.56-2.77 15.95-9.61 22.97-15.63 4.4-3.77 2.54-8.44 3.12-12.79.69-5.13 1.6-10.23 2.35-15.36.31-2.13.49-4.27.93-8.31Zm9.98 17.71c24.67-36.34 39.86-73.72 50.81-114.94-15.37 15.77-50.84 95.83-50.81 114.94ZM467.61 279.74c3.35-2.3 6.95-4.35 10-6.95 4.46-3.8 8.78-7.8 12.73-12.04 16.54-17.76 36.28-31.74 59.38-41.66 4.63-1.99 7.07-4.86 8.96-9.02 9.2-20.21 18.57-40.36 28.19-60.41 3.01-6.27 6.75-12.28 10.57-18.2 2.16-3.35 4.94-6.44 7.81-9.34 2.82-2.85 6.94-4.72 10.55-2.53 2.53 1.54 4.71 5 4.98 7.79.42 4.42-.37 9.11-1.54 13.5-11.86 44.35-29.15 86.67-58.92 124.22-.62.78-1.03 1.69-1.5 2.47 5.79 12.94 13.17 15.27 25.26 7.15 5.39-3.62 9.61-8.72 14.18-13.29 1.42-1.42 1.86-3.86 3.48-4.87 1.79-1.11 4.95-2.06 6.5-1.33 1.49.69 2.69 3.8 2.3 5.55-2.7 12.17-25.82 28.74-39.37 28.58-7.4-.09-12.34-2.9-21.52-12.59-2.57 1.95-5.08 4.1-7.85 5.92-4.94 3.25-9.7 6.95-15.14 9.3-14.92 6.44-27.89-1.4-27.53-16.23.05-2.24.41-4.48.84-9.05-4.14 3.6-6.72 5.89-9.36 8.13-4.47 3.79-8.53 8.15-13.54 11.2-11.55 7.05-22.27 2.4-24.06-10-.36-2.5-.36-5.04-.64-9.18-3.45 3.01-5.52 5.1-7.91 6.82-5.04 3.64-9.84 7.83-15.48 10.46-13.33 6.2-24.7-.47-24.72-13.94 0-1.57.21-3.15.48-6.93-6.55 5.7-11.6 10.07-16.6 14.47-1.81 1.59-3.22 3.84-5.34 4.75-1.91.82-5.34 1.02-6.64-.02-1.28-1.02-1.54-4.22-.77-5.94 1.02-2.3 3.18-4.39 5.32-6.09 18.17-14.41 36.24-28.95 54.83-42.9 4.84-3.63 11.31-5.58 17.24-7.84 3.13-1.19 6.7-.75 8.14 2.63 1.43 3.36-.93 5.49-3.99 7.06-5.64 2.89-11.33 5.71-16.92 8.67-11.82 6.27-18.56 16.16-23.36 27.33-.77 1.79-1.26 3.8-1.24 5.7.05 4.43 3.52 6.7 7.92 4.57 4.69-2.26 9.22-5.2 12.97-8.6 11.07-10.05 19.47-21.83 25.77-34.82.87-1.79 1.72-3.59 2.54-5.4 1.45-3.21 3.49-6.39 7.81-5.03 5.08 1.61 3.73 5.54 2.41 9.06-.58 1.54-1.46 3.01-1.91 4.57-3.08 10.7-6.37 21.37-8.93 32.17-.83 3.48.32 7.32.56 10.99 1.01.37 2.03.73 3.04 1.1Zm81.14-45.99c-1.07-.23-1.73-.48-2.4-.48-.7 0-1.48.11-2.09.4-18.4 8.67-30.29 22-33.81 40.59-1.66 8.75 4.62 12.82 12.8 8.15 7.51-4.28 13.94-10.2 20.56-15.67 1.36-1.12 1.87-3.46 2.08-5.29 1.06-9.01 1.88-18.04 2.85-27.7Zm60.01-97.41c-16.36 18.73-49.94 95.51-49.11 112.59 24.41-36.14 39.41-73.43 49.11-112.59ZM711.51 424.63c3.09-12.55 6.27-25.25 9.28-37.98.51-2.16.3-4.46.46-7.35-4.78-.72-9.28-1.31-13.73-2.09-3.19-.56-5.71-2.51-4.44-5.37.82-1.84 3.87-3.82 6.1-4.03 4.14-.39 8.41.47 12.43.79 3.41-8.84 3.24-30.9-.06-42.68-6.19-2.23-12.68-4.01-18.54-6.85-5.97-2.89-8.43-8.43-6.38-13.03.8-1.8 3.1-3.66 5.12-4.2 1.28-.34 4.62 1.57 4.78 2.74 1.36 10.11 10.44 9.63 17.82 10.2 9.59.74 19.35-.22 29 .16 9.98.39 20.06.87 29.82 2.56 6.11 1.06 12.4 3.58 17.41 6.92 15.59 10.36 15.66 28.41-.32 38.64-7.78 4.98-17.37 7.62-26.19 11.21-2.47 1-5.13 1.6-7.73 2.39 12.32 8.12 23.85 16.12 35.83 23.52 12.29 7.59 25.63 12.77 41.19 11.05 10.06-1.11 17.06-5.44 23.5-14.86-2.19-1.3-4.46-2.55-6.61-3.94-3.73-2.42-4.34-5.83-2.92-9.53 1.51-3.96 5.06-5.28 9.39-5.16 6.28.16 11.09 4.16 12.07 10.39 1.18 7.54-1.35 14.18-7.01 19.82-11.73 11.7-26.41 15.41-43.05 12.86-14.02-2.15-26.48-7.59-37.62-15.5-12.35-8.76-24.5-17.88-40.16-21.62-5.42-1.3-10.94-2.28-17.24-3.57-3.72 15.23-7.19 29.4-10.84 44.36 3.13.95 6.7 1.51 9.57 3.1 2.05 1.14 3.14 3.66 4.66 5.57-2.19 1.2-4.77 3.76-6.52 3.38-10.11-2.21-19.79-1.51-29.61 1.58-1.65.52-4.18-1.37-6.3-2.15 1.01-2.19 1.37-5.38 3.18-6.38 3.89-2.16 8.53-3.2 13.65-4.96Zm24.63-55.35c18.3-.47 35.78-3.08 52.11-10.69 2.84-1.32 5.58-3.09 7.84-5.13 6.7-6.03 6.96-12.89.54-18.95-2.4-2.26-5.5-4.27-8.72-5.39-17.41-6.07-35.51-4.53-54.68-3.83.99 14.95 1.91 28.8 2.91 43.99ZM573.9 383.94c-4.35.95-8.04 1.86-11.79 2.55-3.15.58-6.25-.23-6.49-3.32-.14-1.76 1.58-4.67 3.29-5.38 4.81-2.01 10.06-3.15 15.51-4.74.89-4.41 1.62-8.88 2.71-13.28 3.34-13.61 9.61-25.93 20.5-36.07 20.9-19.45 50.69-19.11 69.74 1.41 18.83 20.29 21.91 44.28 16.39 69.69-2.9 13.33-9.18 25.36-19.6 35.42-21.24 20.51-51.35 20.08-71.28-1.02-10.54-11.16-15.25-24.61-17.75-38.9-.32-1.86-.71-3.7-1.22-6.35Zm59.25-15.66c.06-.29.26-.65.15-.87-.27-.55-.71-1.03-1.05-1.56-3.57-5.69-3.42-9.29.59-13.1 3.36-3.19 7.47-3.83 11.87-2.64 4.81 1.3 8.01 6.35 7.68 11.61-.64 10.39-10.32 18.09-21.78 17.34-15.15-1-26.82-10.81-28.36-24.63-.7-6.26-.02-12.66.05-20.95-10.13 12.66-15.32 24.94-16.09 39.09 7.46 1.96 14.33 3.55 21.01 5.62 3.28 1.02 5.72 3.77 3.61 6.81-1.06 1.53-4.84 2.49-7.12 2.18-5.51-.74-10.87-2.36-17.89-4.01 1.06 16 5.44 29.21 16.17 40.25 15.39 15.84 37.3 15.96 53.57.53 8.98-8.52 14.4-18.67 17.26-30.01 5-19.86 2.94-38.81-8.75-56.3-5.92-8.85-14.14-15.34-25.64-17.71-9.93-2.05-15.51.17-20.59 8.37-5.37 8.66-6.35 18.02-4.22 27.46 1.92 8.49 8.92 12.63 19.52 12.51Z" class="cls-1"/><path d="M760.61 209.24c-3.93 1.04-7.29 1.92-10.64 2.81-3.24.86-6.73 1.63-8.14-2.09-1.5-3.97 1.49-6.03 5.14-7.28 4.04-1.38 8.15-2.56 12.22-3.83 2.44-10.01-.84-42.56-5.83-57.63-17.66-1.44-35.38-2.89-53.82-4.4-.95 1.97-1.97 4.33-3.21 6.61-2.7 4.98-5.38 9.98-8.3 14.85-1.92 3.2-4.36 6.9-9.11 4.37-4.82-2.56-1.78-6.14-.17-9.38 3.4-6.82 6.99-13.59 10-20.56 2.86-6.63 4.13-7.77 11.74-6.87 10.28 1.22 20.46 3.16 30.78 3.9 32.09 2.33 62.87-2.61 91.94-15.93 1.61-.74 3.13-1.64 4.79-2.28 4.46-1.71 7.3-.44 9.43 3.56 3.7 6.93 7.87 13.66 11.91 20.44 1.5 2.53 2.21 5.47-.99 6.71-2.04.8-5.94.29-7.47-1.06-3.25-2.87-5.64-6.6-8.12-10.13-1.69-2.41-2.92-5.08-3.76-6.6-21.29 5.58-41.84 10.97-62.95 16.51 2.15 18.08 4.41 36.98 6.76 56.72 4.19.12 8.02.18 11.84.36 3.6.18 6.87 1.57 5.98 5.14-.45 1.8-3.55 3.8-5.84 4.36-3.65.9-7.62.68-11.23.92-1.8 20.46-3.52 40.14-5.31 60.52 5.97.96 12.62 1.8 19.14 3.15 7.26 1.5 10.32 4.16 8.91 7.6-2.55 6.24-7.39 3.04-11.67 2.05-17.13-4-33.35-1.77-48.67 6.5-.93.5-1.75 1.55-2.66 1.61-2.56.16-6.04.85-7.54-.34-3.09-2.44-1.27-5.81 1.56-7.42 5.75-3.26 11.65-7.13 18.04-8.43 8.22-1.68 11.54-5.51 12.15-12.47 1.32-15.23 2.75-30.46 4-45.7.15-1.85-.51-3.74-.9-6.32ZM485.42 372.96c-4.22 16.99-8.06 32.48-12.06 48.59 5.49 1.76 11.14 3.47 16.69 5.39 2.31.8 5.02 1.6 6.45 3.2 1.27 1.43 1.78 4.17 1.19 5.95-.36 1.08-3.45 1.99-5.31 1.99-2.02 0-4.09-1.01-6.02-1.81-11.77-4.87-24.1-5.55-36.76-3.73-4.2.6-9.38 2.4-10.39-3.2-.99-5.48 4.65-5.75 8.71-6.55 4.17-.83 8.44-1.21 13.46-1.9 4.99-15.49 10.53-30.84 11.41-48.05-3.85.25-7.03.95-9.97.49-2.01-.31-4.92-2.01-5.2-3.47-.31-1.59 1.47-4.63 3.15-5.28 3.89-1.5 8.26-1.94 13.42-3.02 1.98-14.05 2.14-28.19 1.16-42.67-3.91-1.78-8.05-3.07-11.29-5.38-1.75-1.25-1.95-4.26-2.85-6.47 2.5-.66 5.54-2.5 7.41-1.8 26.71 9.94 54.46 9.23 82.49 6.27 1.78-.19 3.59-.39 5.36-.31 7.07.3 9.39 2.94 8.37 9.38-.2 1.28-.65 2.54-.89 3.82-1.54 8.16-2.37 16.18 3.86 23.24 2.01 2.28 2.34 5.39-.75 6.68-1.98.83-6.46.3-7.36-1.01-3.09-4.54-6.01-9.51-7.25-14.68-1.18-4.9-.17-10.26-.11-16.58-11.01.45-21.9 1.3-32.78 1.22-10.63-.08-21.24-1.12-32.47-1.78-.39 13.74-.76 26.97-1.15 40.62 5.17 1.28 10.16 1.97 14.54 3.83 2.38 1.01 5.42 4.21 5.14 6.08-.63 4.18-4.84 3.89-8.59 3.12-3.74-.77-7.51-1.42-11.62-2.18ZM928.68 156.11c-.8 2.28-1.41 4.02-1.95 5.58 5.51 3.14 10.75 5.84 15.61 9.01 2.95 1.92 5.53 4.81 2.34 8.19-3.09 3.28-6.36 1.46-9.42-.55-9.6-6.3-19.74-10-32-5.97-1.84.6-4.71-1.46-7.1-2.29 1.11-2.19 1.6-5.31 3.48-6.35 3.25-1.8 7.29-2.75 11.12-3.25 3.98-.51 5.79-2.02 5.62-6.02-1.19-.26-2.49-.73-3.83-.79-7.35-.35-13.36-2.62-15.72-9.47-2.57-7.46-.58-14.24 5.67-19.63 3.08-2.65 6.95-4.6 10.63-6.6 5.94-3.23 11.19-6.82 14.27-12.86 1.11-2.18 4.6-3.39 7-5.05 1.66 2.21 4.53 4.31 4.76 6.66.72 7.19 4.33 12.84 9.1 18.2 4.09 4.59 6.95 9.66 7.12 15.83.34 12.25-7.88 18.69-21.19 16.41-1.4-.24-2.79-.53-5.51-1.05ZM1153.68 535.13c8.22-2.15 14.3-4.09 20.55-5.29 6.26-1.2 12.68-1.66 20.12-2.58-.26-8.57 5.15-14.84 12.26-20.25 2.81-2.14 6.09-3.38 8.26-.3 1.11 1.57.05 4.63-.57 6.9-.3 1.09-1.79 2-2.88 2.84-4.49 3.47-6 7.54-5.21 13 1.04 7.14-1.07 9.37-8.63 8.68-20.06-1.85-37.13 5.14-53.68 14.25-4.08 2.25-8.39 6.95-13.12 2.17-3.98-4.02.11-8.18 2.79-11.35 10.95-12.95 22.29-25.62 33.51-38.38 2.17-2.47 4.45-4.85 7.71-8.4-6.01-.28-10.5-.49-15.41-.71-2.01 4-3.68 7.9-5.85 11.55-3.15 5.32-7.44 9.91-14.29 11.01-2.25.36-4.91-1.52-7.38-2.38 1.03-2.14 1.51-5.58 3.2-6.19 8.67-3.16 10.76-10.02 13.03-16.93q2.97-9.02 13.29-7.21c9.89 1.73 19.17-.14 28.11-4.17 3.77-1.7 8.21-4.93 11.6-1 4 4.63-1.42 7.46-4.46 10.48-12.38 12.31-24.78 24.59-37.09 36.96-1.89 1.89-3.34 4.15-5.85 7.32ZM950.28 364.09c4.11 10.97 8.09 20.83 22.53 22.54 1.85.22 3.23 3.36 4.83 5.15-2.15 1.44-4.24 3.97-6.48 4.12-7.12.48-13.23-2.34-18.3-6.71-2.55-2.19-4.68-4.79-7.74-7.97-1.68 3.2-2.96 6.03-4.61 8.67-3.41 5.49-7.39 10.61-14.67 12.2-2.34.51-5.09.79-7.25.13-1.63-.5-3.54-2.59-3.65-4.1-.11-1.44 1.74-4.18 3.06-4.38 6.29-.96 10.5-3.93 13.05-9.1 2.85-5.77 3.94-11.71 2.37-18.6-5.67-.31-11.3-.53-16.92-.95-2.48-.19-5.23-.26-7.27-1.31-1.84-.94-4.4-3.76-3.94-4.67.95-1.91 3.6-4.27 5.68-4.4 5.31-.32 10.67.56 16.03.79 1.7.07 3.43-.37 5.84-.65-.53-8.03-1.04-15.69-1.54-23.35-.17-2.59-.45-5.18-.43-7.78.03-2.95 1.66-5.45 5.01-5.13 1.96.19 4.49 2.07 5.27 3.76 1.19 2.6 1.1 5.7 1.54 8.59 1.13 7.3 2.26 14.6 3.53 22.82 6.12-1.38 10.93-2.4 15.7-3.56 2.42-.59 4.73-1.58 7.16-2.13 3-.69 6.47-.52 6.87 2.64.25 1.99-1.47 5.47-3.3 6.2-6.85 2.74-14.11 4.62-22.38 7.18ZM401.03 374.55c1.53 11.9 2.5 22.6 16.24 27.24 1.61.54 2.21 3.48 3.27 5.3-2.3 1.13-4.74 3.36-6.89 3.18-7.25-.61-12.27-4.87-16.08-10.17-2.08-2.89-3.57-6.13-5.36-9.27-3.04 2.89-5.9 5.7-8.86 8.41-5.04 4.59-10.88 7.55-18.26 6.99-3.89-.3-7.26-1.56-7.06-5.71.18-3.82 3.3-4.68 6.93-4.3 6.8.72 10.95-3.14 13.9-7.66 3-4.62 4.83-9.86 7.42-15.38-6.72-1.9-12.13-3.35-17.47-4.97-2.35-.71-5.19-1.28-6.68-2.82-1.57-1.61-2.5-4.36-2.25-6.49.1-.87 4.29-2.3 6.22-1.92 5.2 1.03 10.17 2.97 15.28 4.39 1.64.46 3.45.44 6.41.78 1.34-7.21 2.64-14.13 3.91-21.06.41-2.25.59-4.54 1.16-6.76.87-3.44 1.29-7.89 6.77-7.18 5.14.67 5.11 4.55 4.38 8.39-.74 3.85-1.36 7.72-1.86 11.6-.67 5.13-1.17 10.27-1.87 16.59 5.69.12 10.57.3 15.46.3 2.14 0 4.29-.36 6.43-.5 3.8-.25 7.85 0 8.05 4.28.21 4.23-3.97 4.97-7.61 5.34-4.28.43-8.59.55-12.88.81-2.45.15-4.89.32-8.68.57ZM1035.98 115.08c-2.99 2.8-4.69 5.55-7.15 6.39-2.97 1.01-5.44-.95-5.69-4.13-.27-3.41 2.99-7.01 6.31-6.42 1.95.34 3.56 2.2 6.52 4.17ZM1040.8 87.64c-3.21 2.45-5.91 5.45-6.84 5.06-2.5-1.05-5.11-3.3-5.91-5.6-.41-1.19 3.37-5.19 4.46-4.96 2.54.53 4.59 2.86 8.29 5.5ZM1010.13 97.37c-3.84 2.52-6.04 4.9-8.55 5.25-1.39.19-5.05-3.64-4.64-4.54 1.01-2.23 3.51-4.61 5.96-5.34 1.37-.41 3.85 2.35 7.22 4.63ZM414.45 711.14c-2.7-3.08-5.58-4.93-5.43-6.59.16-1.75 2.95-4.12 5.09-4.76 3.22-.95 5.72 1.44 5.41 4.18-.22 2.01-2.61 3.85-5.07 7.17ZM696.46 238.44c-3.29 2.54-5.27 5.21-6.98 5.09-2.03-.14-5.09-2.51-5.34-4.23-.23-1.57 2.48-4.76 4.27-5.03 1.88-.29 4.21 2.04 8.04 4.17ZM534.13 518.97c2.78 3.39 5.15 5.27 5.83 7.58.3 1-2.69 3.9-4.49 4.17-3.71.55-6.23-1.81-5.92-5.19.16-1.73 2.24-3.34 4.57-6.55ZM487.79 160.14c2.78 2.8 5.12 4.09 5.53 5.79.87 3.56-2.14 5.67-5.51 5.71-1.75.02-5.1-2.58-4.92-3.64.39-2.31 2.58-4.38 4.91-7.86ZM512.38 527.25c-2.91 2.48-4.79 5.29-6.51 5.23-1.98-.06-3.82-2.66-5.72-4.16 1.73-1.69 3.18-4.1 5.29-4.79 1.28-.42 3.59 1.82 6.94 3.72ZM882.07 320.5c-2.68 2.76-3.87 4.98-5.71 5.65-3.18 1.15-5.8-.73-5.86-3.59-.04-1.67 1.98-4.67 3.36-4.83 2.15-.25 4.54 1.41 8.22 2.78ZM852.99 325.24c-3.3 2.4-5.5 4.99-6.72 4.66-2.18-.59-3.77-2.92-5.61-4.53 1.57-1.47 3.17-4.12 4.71-4.11 2.11.01 4.17 2.05 7.62 3.98ZM992.47 464.12c2.51 2.41 5.51 4.1 5.28 5.32-.38 2.05-2.5 4.92-4.48 5.43-3.13.81-5.55-1.61-5.06-4.62.3-1.82 2.3-3.42 4.27-6.14ZM253.96 413.96c-3.63 2.5-5.5 4.71-7.55 4.89-1.59.14-4.29-1.98-4.93-3.61-1.05-2.7.78-5.34 4.07-5.23 2.22.08 4.34 1.95 8.4 3.95ZM973.77 463.12c-2.81-2.73-5.74-4.42-5.49-5.57.44-2.04 2.83-3.76 4.4-5.61 1.76 1.27 4.86 2.43 4.96 3.83.15 1.91-1.97 4-3.88 7.36ZM462.4 162.79c2.52 2.91 4.76 4.37 5.05 6.11.48 2.88-1.77 5.24-5.07 4.65-1.95-.35-4.86-2.63-4.81-4 .06-1.88 2.51-3.73 4.83-6.75ZM666.98 252.79c-4.34 2.54-6.43 4.64-8.58 4.72-1.51.06-4.25-2.57-4.34-4.11-.08-1.49 2.48-4.33 4-4.41 2.15-.12 4.4 1.74 8.92 3.81ZM662.38 217.32c2.74 2.85 5.61 4.51 5.58 6.16-.03 1.78-2.78 3.56-4.35 5.33-1.78-1.6-4.34-2.96-5.06-4.9-.46-1.23 1.82-3.32 3.83-6.6ZM525.79 506.36c-2.81 2.24-4.3 4.37-6.21 4.76-3.23.67-5.87-1.31-5.29-4.32.32-1.64 2.92-3.85 4.75-4.09 1.66-.22 3.67 1.87 6.75 3.65ZM973.72 479.54c-3.07 2.42-4.76 4.71-6.81 5.04-1.43.23-4.93-2.53-4.72-3.44.47-2 2.37-4.36 4.37-5.23 1.11-.48 3.62 1.74 7.15 3.63ZM474.88 141.29c1.99 2.97 4.22 4.81 3.94 6.28-.3 1.57-2.97 2.8-4.6 4.19-1.45-1.48-3.97-2.91-4.04-4.47-.07-1.52 2.35-3.17 4.7-6ZM864.52 296.93c-2.79 2.25-4.3 4.43-6.21 4.81-3.36.66-5.66-1.62-4.98-4.53.39-1.65 2.93-3.82 4.72-4.04 1.62-.2 3.55 1.95 6.46 3.76ZM225.82 424.86c-3.14 2.14-4.99 4.37-6.64 4.27-1.72-.1-4.47-2.41-4.51-3.82-.04-1.43 2.55-3.91 4.26-4.16 1.63-.23 3.63 1.84 6.89 3.71ZM234.62 402.15c-3.1 1.92-5.13 4.14-6.73 3.92-1.72-.23-4.25-2.77-4.19-4.25.06-1.46 2.85-3.87 4.58-3.99 1.63-.11 3.43 2.21 6.34 4.32ZM428.68 685.22c-2.17-2.65-4.65-4.37-4.45-5.82.21-1.54 3-3.93 4.6-3.91 1.67.02 4.41 2.36 4.58 3.9.16 1.44-2.43 3.16-4.73 5.83ZM446.18 707.56c-2.54-2.42-5.26-3.87-5.26-5.34 0-1.59 2.39-4.3 4.02-4.5 1.59-.2 4.63 1.91 5 3.44.36 1.45-1.91 3.46-3.77 6.4Z" class="cls-1"/></g></svg>