<svg xmlns="http://www.w3.org/2000/svg" id="Layer_2" data-name="Layer 2" viewBox="0 0 1100.73 1348.33"><defs><style>.cls-1{fill:#000}</style></defs><g id="Layer_1-2" data-name="Layer 1"><path d="M720.44 908.15c-6.2 1.98-12.09 3.86-17.75 5.67-6.57 35.81-40.94 36.56-52.18 6.32-12.55-4.61-24.81-9.1-37.87-13.9-53.85 70.48-169.38 89.7-234.55 23.84-16.74 14.09-37.03 15.33-58.36 11.59-22.14 28.28-60.45.42-51.11-31.03.88-3.59 1.17-6.5-1.62-9.56-19.29-21.16-25.94-46.86-28.99-73.78-3.45-30.45.44-60.1 10.6-89.13 3.62-15.85 17.64-37.36 7.51-52.27-95.61-147.69-60.48-350.27 94.08-447.06 215.69-150.79 536.25 46.18 507.69 305.74-.23 3.99.54 6.87 3.79 9.94 23.57 22.22 27.46 49.54 10.97 77.15-16.14 27.02-47.85 47.12-49.04 81.09-.63 9.42-1.51 18.8-8.54 26.52-1.21 1.33-1.19 4.16-.89 6.18 6.89 46.24-9.96 85.8-38.37 121.99-3 3.82-3.29 6.75-1.52 11.05 14.51 36.66-28.11 64.32-53.84 29.64Zm65.35-158.89c-14.18-7.98-28.7-17.14-29.15-34.72-1.4-7.71 9.44-8.72 9.91-1.01.35 24.78 43.18 36.88 46.23 6.24.45-6.87 1.38-13.76 2.77-20.51 5.78-27.08 29.27-45.27 44.84-66.9 51.48-77.93-70.84-115.6-90.16-32.64.21 4.54-3.02 6.78-6.17 9.4-3.27-3.39-5.56-5.92-4.97-11.11-25.79 3.24-50.72 2.99-75.29-5.28-2.35-.74-5.61-3.56-5.54-5.31.67-2.96 5.18-7.03 8.95-7.19 19.45-4.17 75.22-23.45 79.13-43.75-20.66 3.64-40.9 7.87-62.01 5.12-7.73-1.87-23-.55-24.34-10.64-.11-1.19 3.4-3.49 5.59-3.95 23.51-6.92 61.03-20.02 69.5-44.72-22.42 4.86-44.96 9.09-67.75 4.61-4.58-.87-11-.81-11.89-6.7-.98-6.48 5.67-6.73 9.99-8.44 33.78-13.37 61.26-34.58 84.51-61 10.64-9.17-3.13-17.71-5.89-27.43-11.04-24.55-23.8-48.92-40.96-69.81-11.72-16.35-23.28-32.45-39.48-44.67-11.1-9.95-19.08-22.85-33.6-28.64-14.49-15.17-34.87-22.47-53.8-30.8-56.92-21.4-121.09-13.3-177.01 6.79-7.97 3.03-16.73 5.18-20.87 13.86-27.63 22.45-57.66 44.08-77.75 74.04-11.06 15.13-21.04 30.98-31.5 46.51-8.41 10.61 4.84 37.85 7.53 50.83 7.3 22 18.53 42.26 32.19 61.32 2.05 2.87 4.54 6.1 1.8 9.45-4.08 4.83-9.9.8-14.42-1.11-18.64-11.62-35.57-20.39-53.68-33.79-.26 33.53 31.68 76.2 53.97 101.01 3.47 2.53 6.14 8.35 4.47 11.95-14.81 11.9-68.86-37.1-81.09-47.71-7.1 14.59-9.83 30.53-17.34 44.9-3.36 6.86-4.32 12.77-2.83 19.64 3.15 11.96 3.93 24.71 9.27 35.96 39.54-26.36 76.92-6.38 116.32 7.61 19.97 6.51 43.15 17.17 62.34 3.07 25.38-16.85 4.11-50.61-22.22-47.04-3.29.21-7.31 1-7.88-3.37-.71-6.03 6.82-6.18 11.15-6.17 17.32.11 29.27 8.42 37.69 22.16 4.66 7.61 6.07 8.28 15.07 6.6 6.38-1.19 12.77-2.4 19.02-4.04 18.68-3.19 6.33-38.22 51.78-42.13 3.35-.23 7.26-.36 7.81 3.8.55 8.08-11.87 4.89-16.91 7.55-32.89 10.32-29.78 57.55 7.88 56.49 42.02-1.19 70.48-39.22 115.04-32.07 14.1-1.55 59.06 24.98 21.29 23.41-20.55-4.46-41.89-9.84-61.69 0-8.45 2.46-17.58.89-25.9 5.01-13.81 6.84-28.26 12.3-44.07 13.66-1.47.13-3.1 1.11-4.22 2.13-13.04 13.26-44.63 33.47-41.42 53.99.43 1.36.03 3.17-.56 4.55-3.29 6.38-9.73 1.03-9.73-4.39-3.61-14.22-1.69-28.22 1.39-42.35-11.89.54-22.96 1.04-34.82 1.57 3.79 13.01 8.57 25.36 6.54 38.99.21 5.81-6.56 13.37-10.17 5.32.71-10.11.61-13.19-8.07-19.54-27.04-25.15-61.94-36.26-96.57-47.51-12.4-5.65-18.38-.96-30.54.91-17.83 1.88-34.09 9.14-48.37 19.46 6.42 18.62 15.7 34.85 25.89 50.66 6.36 13.79 29.34-3 36.67-9.29 43.93-35.09 63.88 5.15 103.77 3.82 2.88-.39 5.85.97 5.39 3.99-2.53 8.24-15.81 5.1-22.36 4.91-23.48-2.11-46.01 7.29-69.56 5.33-16.67-.39-32.69 1.52-47.22 7.31-16.35 53.79-41.43 113.2-9.4 166.18 2.38 4.25 5.13 5.45 10.32 4.55 5.61-.97 7.75 2.58 5.36 7.57-2.9 3.8-5.49 8.45.77 10.54 8.56-7.73 14.09-18.3 21.17-27.37 1.92-2.74 3.49-5.88 7.52-4.25 6.36 3.17-.42 11.2.08 16.39-1.87 8.49 8.35 49.27 18.1 48.81 11.96-.7 35.24-.99 41.43-12.85 2.77-6.33 6.91-5.34 10.22-.14 50.09 92.04 211.03 59.25 239.62-34.68 1.09-8.62 11.51-6.2 9.8 1.97-4.29 14.15 12.52 21.88 24.44 22.76 5.49-11.04 4.63-22.69 4.33-34.29-2.16-11.92 7.15-17.75 12.24-4.79 8.91 13.59 19.24 26.12 30.84 38.36l17.04-7.34c-.34-16.25-2.88-31.85-10.88-46.39-5.48-7.94 2.95-13.94 9.21-6.88 14.24 11.84 32.03 17.06 49.17 26.02 19.1-23.52 29-43.28 22.65-73.83-.71-13.09-7.05-26.18.04-38.54Zm61.88-204.57c4.52-60.85-7.35-118.47-36.52-174.66-23.33 43.68-57.67 75.96-99.67 100.9 3.27 19.28 56.18-6.53 69.34-8.62 4-1.26 8.4-4.26 11.75-.05 3.8 4.77-1.02 8.07-3.84 11.3-17.17 20.41-39.49 34.86-62.26 48.92 2.57 3.6 4.56 6.4 6.66 9.35 23.16-1.44 43.87-9.5 64.76-17.72 15.26-2.09 4.76 13.48-1.25 18.08-19.82 20.93-45.29 32.69-70.8 46.19 4.28 11.63 15.7 12.06 26.14 10.81 6.96-.36 11.26-2.5 14.33-9.07 13.7-32.41 48.52-38.36 81.38-35.41Zm-560.6-25.32c-15.32-24.97-30.43-49.62-37.83-77.92-.75-7.17-9.99-29.02-.98-31.79 3.88-1.42 5.95 1.34 8.1 3.85 10.77 14.78 25.84 24.92 40.45 35.58 3 2.2 6.48 3.55 8.7.1-16.62-40.3-33.22-77.31-33.57-121.92-23.93 28.82-54.99 94.48-51.74 130.78 16.76 18.19 39.39 64.28 66.87 61.33Zm131.15 100.72c26.51 6.99 53.25 1.67 63.31-12.34-3.69-2.89-6.08.56-8.77 1.76-14.67 6.52-29.8 10.1-45.9 5.97-4.52-1.16-6.81.06-8.65 4.61ZM779.12 1087.32c4.99-17.11 12.51-33.42 19.82-49.66 2.23-4.65 6.39-8.89 10.66-12.16 8.5-6.53 17.39-3.62 19.11 6.61 4.97 23.63-5.93 48.74 2.12 71.7 17.11 19.58 23.57-54.96 23.62-63.67-4.85-2.67-8.98-4.55-12.62-7.08-9.07-7.92 5.28-10.51 10.52-4.97 4.28-2.01 5.05-7.97 10.73-5.67 3.77 1.61 3.25 5.11 3.13 8.22-1.64 17.65-1.72 37.31 11.97 50.66 23.73 19.61 35.73-56.81 27.64-69.9-20 11.76-57.55.41-47.21-27.04 4.25-10.68 18.36-16.88 30.39-13.45 11.34 3.33 16.83 11.4 23.45 20.59 10.47-15 16.36-30.25 17.15-47.21-1.61-5.67 2.37-12.05 8.03-7.46 2.47 2.85 4.27 6.24 6.84 10.18 12.56-26.73 44.23-36.63 64.88-12.4 32.14 32.46 11.98 112.18-42.17 88.26 15.43 126.97-20.05 311.72-175.12 324.9-42.94 4.93-87.18-23.88-86.68-70.19-1.24-70.27 78.33-142.17 147.42-141.96 10.49.5 20.42 2.98 28.19 10.09 9.1 8.33 5.04 22.31-7.16 25.2-15.48 4.32-21.35-13.56-10.58-23.31-66.09-15.11-161.42 74.56-146.14 141.75 7.17 44.93 60.81 56.46 99.24 44.85 145.91-37.97 169.38-253.17 121.98-372.9-4.88 14.5-11.18 25.14-19.09 37.6-2.4 3.54-3.08 6.39-2.43 10.37 9.17 33.33-15.37 124.06-55.78 67.44-3.15 17.84-15.15 56.64-37.83 34.14-14.75-20.09 2.66-54.47-4.96-78.06-10.34.75-19.78 30.64-23.59 39.7-5.4 17.11-9.29 34.65-13.79 52.02-.02 3.91-2.58 8.15-6.11 9.32-11.63 3.58-5.99-53.15-7.29-62.17-7.66 1.23-17.14 4.95-20.27-3.55-1.59-10.35 7.79-13.97 15.64-7.83 5.21-2.36 4.41-6.44 4.64-10.09 3.55-37.38 1.37-75.75 10.48-112.35 4.29-20.66 27.08-20.66 32.83-.44 11.38 39.48-6.83 88.14-30.49 120.99-5.21 8.3-2.67 19.05-3.24 28.39.69.18 1.38.37 2.07.55Zm177.23-110.88c15.75-17.37 39.34-2.61 23.76 2.84-7.63-1.6-14.15-1.05-16.34 6.94-8.58 25.68 25.89 43.8 42.37 20.78 18.83-23.57 4.87-84.46-32.63-75.29-17.2 5.71-26.22 28.94-17.16 44.73Zm-178.45 62.64 2.45.69c16.44-27.56 35.78-80.45 14.38-108.52-16.48 8.35-13.57 86.45-16.83 107.84Zm125.84-39.6c-4.11-15.44-25.12-28.63-35.28-12.11-7.68 19.23 24.5 24.9 35.28 12.11Z" class="cls-1"/><path d="M387.4 1150.6c-8.04 3.85-14.27 7.53-21 9.92-31.37 11.64-37.71-27.51-24.93-47.71 5.59-9.93 11.68-19.61 18.03-30.2-4.83-.99-9.74-1.99-14.89-3.04-13.54 17.68-25.03 37.05-44.6 48.8-24.91 14.76-36.89 8.2-36.27-21.06-14.38 7.24-27.89 17.57-44.82 15.28-21.96-1.8-20.69-27.73-7.86-39.56 3.34-3.44 7.31-6.33 10.99-9.47-.37-.52-.74-1.05-1.11-1.57-9.6 3.44-19.48 6.17-29.38 8.59-3.38.76-6.9-.59-7.44-4.49-.6-4.37 2.97-4.29 6.33-5.25 24.87-5.8 46.16-20.19 71.43-24.77 9.57-1.72 18.46-.31 26.78 4.23 3.24 1.77 6 2.76 10.1 1.97 24.77-.36-9.59 33.76-16.03 39.63-8.25 8.68-8.68 19.24-7.51 29.99 2.06 9.37 14 1.23 18.95-1.41 17.33-11.33 28.81-27.49 39.57-44.14 1.11-1.72.88-4.78.17-6.89-7.76-23.04 2.24-42.46 26.51-49.88 8.69-2.24 23.58-3.05 24.84 8.93.28 14.85-20.43 14.23-25.36 2.37-13.76 6.17-19.29 14.03-18.56 26.16.12 17.01 16.98 14.89 29.43 14.08 15.61 1.57-1.32 15.71-4.9 21.7-5.45 8.22-11.37 16.32-15.38 25.17-6.6 12.77-9.19 43.19 13.87 32.89 23.61-9.18 36.21-24.05 44.46-47.73-9.97-.9-22.22.7-25.87-10.4-1.93-5.7 1.54-11.05 7.58-12.01 7.73-1.53 10.74 5.31 8.62 11.8 10.42 1.01 16.72-2.1 21.61-11.22 19.6-34.57 40.15-70.17 67.72-99.35 8.09-9.02 26.08-2.95 24.55 9.77-.4 6.79-1.12 13.9-3.61 20.19-12.18 31.36-34.62 54.14-61.8 74.76 10.09-2.72 15.83-3.83 25.32-3.63 25.89 2.18 22.83 38 8 51.75-9.37 8.98-19.47 16.32-31.31 22.62 12.2 4.78 23.9 9.14 30.97 20.33 11.37 17.02-3.19 39.42-23.27 36.54-18.5-2.66 1.56-28.68 8.84-10.55 20.24-15.72-2.84-34.1-19.49-35.97-10.08-1.24-20.39-1.12-30.6-1.03-15.7-.39-38.85 10.03-28.67-16.13Zm10.95 7.86c32.42-2.31 83.55-15.21 83.39-54.52-.5-8.13-5.03-12.24-13.56-11.42-33.72 5.83-55.8 35.54-69.83 65.94Zm-110.88-98.58c-39.3-7.98-105.54 52.65-61.32 53.18 30.43-5.98 48.11-25.41 61.32-53.18Zm213.64-72.22c-7.83.49-10.96 5.79-14.01 10.3-18.42 28.85-39.15 55.42-55.46 85.56 26.99-13.11 79-64.13 69.46-95.85Zm-63.7 105.98c-8.6 2.49-18.08 3.89-18.46 15.47l18.46-15.47Z" class="cls-1"/><path d="M34.55 1047.85c-45.73-10.81-45.81-82.63-1.72-95.21 29.16-1.97 11.02 33.79-7.72 15.37-23.32 19.98-19.76 61.23 8.31 63.66 3.57-18.29 9.36-35.32 24.46-47.71 8.39-6.36 21.27-13.65 31.19-5.76 15.65 14.1-10.99 28.58-17.26 9.1-14.74 6.13-27.4 27.68-25.73 45.11 31.3-4.96 53.36-22.91 73.56-43.91-2.67-7.52-6.81-13.52-7.15-21.05.79-5.28 6.05-6.12 8.85-1.86 2.17 4.13 3.52 8.65 5.62 14.12 16.96-17.62 33.1-34.37 50.06-51.99-10.99-5.76-23.85-9.86-31.61-19.79-7.03-8.78-13.49-19.47-7.51-30.61 3.31-8.94 20.57-7.72 20.31 2.34-.06 7.02-6.74 7.65-12.81 7.64 3.91 18.95 23.09 25.73 38.87 32.1 2.27.83 5.78.17 8.08-.97 7.53-3.72 15.43-6.06 23.82-5.48 6.38.94 20.33 3.57 15.7 12.82-5.04 7.29-10.62-5.69-26.02 6.69 41.88 34.02 26.84 109.66-35.59 93.78 15.31 29.36 13.88 59.96-10.13 84.43-7.91 8.4-17.98 12.74-29.63 13.65-44.32 6.01-87.2-26.65-95.96-76.47Zm99.72-42.52c-24.95 22.52-51.62 41.66-87.46 43.68 1.87 45.17 61.41 83.98 102.26 58.22 35.84-28.78 22.25-80.69-14.79-101.9Zm62.54-66.57c-18.57 20.01-36.35 39.16-54.06 58.25 54.72 56.32 109.85-9.45 54.06-58.25ZM431.76 47.02c-6.67-.17-24.55-6.32-19.17-14.62 8.1-4.45 14.11 11.02 22.09.31 1.72-4.98 8.5-7.89 10.67-1.55.37.74.37 2.12-.12 2.71-5.81 6.82-1.99 14.32-1.9 21.56.64 18.56-3.12 36.47-23.58 44.96 2.99 16.28 5.97 32.49 8.92 48.52 6.25 1.84 15.49.23 16.58 7.58-1.18 3.24-5.99 4.8-9.53 3.42-14.98-3.57-21.03 12.27-26.98 5.51-4.42-6.49 5.5-9.97 9.88-14.08-2.92-15.83-5.92-32.09-8.82-47.79-22.12-6.3-34.56-16.03-41.82-37-2.49-9.77-9.79-7.69-16.08-14.87-11.95 8.24-13.43 18.79-7.79 31.99 11.09 26.84 20.06 54.46 30.04 82.14 3.01.46 6.08.45 8.68 1.5 5.04 2.18 4.96 7.1-.08 8.62-8.2-.2-14.73 2.49-20.37 8.08-4.26 2.41-8.74-1.52-6.55-6.1 2.02-3.13 5.05-5.68 8.46-9.3-10.89-30.21-21.97-60.96-33.87-93.97-9.64 15.06-15.86 28.07-9.73 44.07-2.65 8.09-9.33 4.87-12.28-1.25-10.24-11.97-23.63-26.36-41.46-23.69 15.23 31.63 31.17 62.42 46.6 93.56 3.21.41 6.31.32 8.96 1.32 5.11 2.07 5.13 6.96-.06 8.59-5.76.64-10.92 1.78-15.16 6.03-9.97 2.98-8.17-6.33-3.12-11.92-5.82-11.61-11.63-23.19-17.67-35.23-29.52 6.01-27.96-14.19-15.25-9.27 3.21 1.24 6.24 1.87 9.94-1.42-7.59-15.1-15.19-30.23-23.54-46.86-4.57 4.97-5.34 13.62-12.44 11.49-3.95-1.75-3.07-4.87-1.77-8.07 13.94-30.86 43.01-17.85 63.71-1.64 4.56-15.64 13.5-27.88 23.53-40.27 7.54-9.52 32.2-33.21 18.44-44.62-16.88-17.93 32.49-32.44 7.18 29.82 17.87 11.97 19.18-8.93 28.01-3.41 6.07 6.15-4.16 10.7-8.19 15.34 10.29 50.05 67.94 44.56 55.62-10.18ZM621.07 1086.62c-6.14 0-11.68.33-17.16-.07-15.42.27-32.04-15.16-23.75-30.52 7.04-11.45 17.99-22.39 32.13-24.61 8.23-.99 13.24 2.26 13.72 8.61.05 16.07-14.89 14.65-26.35 8.48-7.25 6.31-18.39 18.83-4.42 25.88 11.09 6.21 23.38 1.28 34.13-3.14 7.11-4.02 12.92 2.02 7.72 8.53-4.78 8.95-9.8 17.8-14.09 26.96-7.55 13.19-21.41 71.94 10.15 53.5 18.49-14.84 23.76-38.65 34.3-58.74 12.04-22.49 20.18-49.04 43.45-62.81 44.56-27.09 56.27 29.96 29.68 8.8-6.98-6.25-24.05 1.48-16.32 10.88 14.5 14.09 32.96 25.12 35.79 46.76 8 58.24-82.62 75.3-88.38 12.36-9.64 17.1-19.15 43.47-36.68 53.03-35.5 15.22-33.89-26.41-27.81-48.78 3.03-12.06 9.03-23.48 13.89-35.09Zm59.76 9.9c12.3-7.31 29.5-13.91 35.61 2.09 2.31 15.2-18.23 17.55-17.92.31-6.88 1.99-10.37 6.44-12.78 11.71-14.15 57.98 81.14 42.73 62.31-10.85-6-22.03-34.05-25.16-37.4-49.01-14.56 13.36-21.84 29.02-29.82 45.76ZM889.9 259.5c-11.9 12.26-23.46 24.18-35.27 36.35.96 4.96 8.93 15.67.75 17.84-1.87.18-5.23-1.86-5.85-3.57-5.81-16.78-16.64-13.23-17.98-23.76 6.07-3.2 9.7-1.36 15.79 1.92 8.04-7.77 16.38-15.33 23.77-23.75 4.26-4.79 10.56-9.18 11.95-14.67 2.9-6.44-12.43-23.17-2.69-26.43 7.8-2.4 8.38 10.94 11.78 16.95 11.4-12.94 20.06-26.07 30.21-38.39-6.24-9.51-18.19-27.3-5.75-35.79 1.66 1.65 4.83 3.38 4.74 4.94-.33 25.87 29.65 38.24 42.53 57.89 30.11 35.81 2.12 92.13-45.41 60.93 4.9 58.83-35.12 122.35-.28 176.78 4.39 6.58 9.57 12.76 19.25 13.1-1.56-18.42 20.19-24.47 21.98-5.13-.38 10-10.22 17.34-21.58 15.9-29.84-4.39-41.55-38.77-43.81-64.86-1.18-40.91 10.55-80.84 14.12-121.43 2.12-17.47-6.37-31.44-18.24-44.8Zm7.49-8.86c54.67 85.34 104.91 9.04 32.47-41.85-11.23 14.47-21.76 28.04-32.47 41.85ZM103.2 520.87c25.44.4 36.99-27.57 37.41-48.63 1.69-46.35-15.58-92.92 1.55-138.05-9.4-9.53-18.83-19.08-28.52-28.89-5.65 3.51-26.19 9.06-26.07-1.7.64-4.08 4.05-3.91 7.73-3.51 2.97.33 6.08-.54 11.82-1.18-11.58-12.1-21.62-22.25-32.52-32.99-6.53 5.68-12.72 11.08-18.56 16.16 2.37 6.12 16.69 19.57 8.27 23.88-3.43 1.58-5.83-.29-7.13-3.14-3.1-6.82-7.98-12.11-14.01-16.78-4.29-3.32-3.93-6.29.67-8.93 15.89-9.11 27.92-22 38.97-35.76 6.6-6.08 8.38-26.22 20.32-17.5 4.09 4.06 21.9 9.11 18.99 15.4-4.46 7.83-15.86-2.4-22.16-4.03-5.58 7.44-11.29 15.05-17.86 23.79 21.33 21.62 42.88 43.45 63.25 64.1 10.17-4.45 17.48-12.31 27.37-12.64 5.72 2.07 5.95 4.46 1.82 8.83-.13.2-.6.23-.93.29-31.85 6.82-29.83 51.84-27.96 76.89 2.76 41.95 19.16 95.81-18.63 126.96-12.35 8.9-26.82 9.63-39.87 1.89-6.86-3.25-12.44-12.55-7.94-18.77 2.55-3.82 8.58-5.71 14.2-4.47 9.35 1.94 10.52 10.41 9.79 18.79Z" class="cls-1"/><path d="M272.55 207.11c-17.71-27.21-35.23-54.1-53.6-82.32-6.23 14.46-6.83 27.24-.79 40.27 1.66 3.58 7.14 7.69 1.05 11.32-5.57 3.32-8.17-2.47-11.13-5.29-12.3-11.75-27.1-14.34-45.9-12.17 22.37 28.01 43.87 54.37 65.43 81.08 5.83-1.18 12.54-4.3 16.48 1.6 0 7.28-14.95 5.4-19.88 16.95-3.38 3.56-7.96.36-7.92-3.83.23-2.67 1.87-5.24 3.24-8.69-8.5-10.52-17.31-21.43-25.99-32.17-6.73.98-19.1 9.61-22.45 1.03-1.12-6.47 10.06-6.35 15.49-9.41-11.66-14.5-22.37-27.82-34.11-42.4-4.61 4.15-7.74 14.7-13.75 12.39-3.17-1.43-3.83-4.2-2.56-7.2 11.75-25.68 45.35-22.11 67.74-13.88-4.93-30.16 22.71-54.75 21.5-82.41-30.58-13.99 9.54-35.49 10.45 1.69.29 11.25-3.12 21.79-8.44 31.61-3.08 5.69-2.94 9.95.73 15.43 18.08 26.65 35.04 54.37 53.21 80.88 4.62.27 8.69-.05 12.34.97 4.39 2.44 5.6 7.58-.98 8.81-14.14-1.03-11.53 8.69-22.45 9.88-2.92-5.7-1.52-8.67 2.28-14.13ZM674.95 169.86c5.05-28.19-10.73-53.51-34.08-61.96-7.74 15.29-14.79 30.96-21.74 46.96 4.03 4.61 15.44 9.76 9.06 16.28-6.64 5.08-10.91-11.45-25.5-7.59-2.86.53-5.92-.59-5.74-3.56.12-1.94 2.66-5.36 4.12-5.36 8.54.02 9.73-6.26 12.18-11.59 6.26-14.01 12.33-25.59 17.86-40.33-7.34.34-12.98.6-19.83.91 11.78 16.91-8.23 25.64-15.3 11.07-4.13-21.35 24.63-22.71 39.86-21.62 5.74-11.48 11.66-23.31 17.54-35.07-2.11-3.23-4.47-5.97-5.71-9.11-1.35-5.12 3.22-7.76 7.56-4.81 10.38 12.02 22.84 22.72 40.4 17.26 2.61-1.43 7.1.59 8.24 2.38.52 1.41-.97 4.89-2.29 5.28-6.92 2.03-6.1 7.17-6.56 12.16-2.62 28.76-5.3 57.52-8.26 86.25-1.29 6.05 1.21 8.94 5.1 13.21 5.55 6.44-3.08 13.28-7.87 6.12-5.44-9.51-17.15-3.19-18.15-10.5-.42-4.94 5.61-5.31 9.12-6.39Zm6.01-40.54 4.38-55.37c-8.48-2.96-15.82-5.52-24.37-8.51-5.17 10.52-10.49 21.36-15.51 31.59 15.87 10.15 23.52 17.16 35.51 32.28ZM979.95 353.33c3.59-32.48-66.16-.2-40.82 34.66 30.94 40.42 116.58 11 73.69-42.43-15.45-37.37 55.53-50.74 51.81 1.79 12.61-1.88 25-1.03 33.85 8.45 1.65 1.62 2.89 5.61 1.92 7.23-6.6 9.17-15.37-17.17-39.29-2.12-2.27 1.81-6.95 2.03-9.04.86-3.93-4.45 1.23-10.91 1.58-15.78 3.74-17.36-14.31-32.48-28.87-18.5-8.89 7.43-1.05 16.98 3.29 24.45 33.7 56.8-62.7 86.04-94.51 45.34-17.08-18.36-13.14-44.89 8.94-57.6 9.86-5.24 21.21-10.41 32.71-8.27 23.23 2.38 19.69 38.13-2.5 37.97-15.78-1.82-9.64-20.98 7.23-16.07ZM838.3 201.41c-5.99-3.68-11.49-7.05-17.54-10.77-9.96 11.47-19.77 22.77-29.42 33.9 8.69 10.53 17.01 35.86 31.79 36.32 3.62-16.16 22.61-11.75 15.82 1.98-4.31 6.49-15.76 9.89-23.94 6.27-22.55-9.5-22.75-46.62-53.12-41.58-3.04.38-6.41.34-7.16-3.29-.87-9.53 14.81-5.86 20.56-5.59 4.04.78 6.96.63 9.66-2.48 9.02-10.38 18.14-20.68 27.61-31.45-5.91-5.67-13.42-7.96-12.63-16.65 7.94-2.46 11.72 2.9 18.12 7.36 9.71-11.13 16.99-23.26 23.99-36.13-3.1-4.87-15.87-12.22-8.65-18.04 3.19-2.09 5.37.13 7.7 2.09 15.67 13.08 30.6 28.07 51.67 31.75 7.93 1.72 9.66 4.77 6.6 11.41-2.94 6.38-5.65 12.61-5.78 19.77-.03 1.69-2.99 3.32-4.6 4.98-1.71-1.6-4.94-3.3-4.85-4.8.78-7.31 1.7-14.35 4.2-21.42-13.69-5.09-25.39-10.91-37.58-19.08-7.84 11.94-15.48 23.57-23.88 36.36 6 3.81 11.88 7.56 17.49 11.12 6.53-2.24 12.53-7.23 17.88-1.26.15 7.72-14.27 6.88-15.87 19.23-2.51 4.15-7.93 3.17-9.05-1.86-.45-2.33.52-4.9.99-8.16ZM549.32 1050.38c-7.6 9.42-9.43 25.62 2.83 31.72 6.97 2.28 11.64 11.88.76 11.61-13.38-.25-25.42.65-35.32 12.19 10.17 4.24 18.11 5.56 28.5 6.52 3.19.4 6.12 1.23 6.04 4.88-.79 6.98-10.81 4.88-15.85 6.62-20.27 1.58-53.14 31.72-20.5 42.36 23.5 3.78 39.71-20.9 49.91-38.31 4.08-4.85 7.4-25.39 15.04-21.8 12.84 6.45-24.48 55.94-34.37 60.97-14.22 12.23-39.56 13.9-50.53-3.23-6.73-9.69-6.31-18.74 1.42-27.79 6.35-7.39 13.2-11.97 21.73-17.53-26.26-16.13 1.34-29.26 18.48-34.57-15.58-24.35 15.16-67.02 31.92-46.91 6.15 12.24-10.72 21.7-20.05 13.28Z" class="cls-1"/><path d="M732.75 141.58c7.03-19.61 13.4-37.35 19.59-54.6-4.62-6.18-23.03-17.99-14.72-25.31 2.13-.65 6.11.16 7.23 2.76 11.27 16.34 31.79 20.84 48.43 29.89 23.6 10.99 30.47 45.69 5.01 59.12-19.27 11.2-39.66 7.28-60.24 1.17-6.08 12.33-12.06 24.44-18.12 36.71 2.78 5.21 13.3 11.84 6.7 17.44-3.3 2.23-5.74.28-7.42-2.22-6.51-10.69-14.08-6.34-20.16-14.42 3.42-3.6 6.28-5.54 11.66-5.08 5.87-12.03 11.68-23.95 17.61-36.09-4.32-4.8-24.66-15.99-17.05-22.42 4.72-4.17 7.29.77 10.23 3.61 2.96 2.86 6.33 5.35 11.24 9.44Zm10.01 2.56c58.86 25.89 94.1-31.38 19.01-53.24-6.63 18.55-12.83 35.94-19.01 53.24ZM570.9 92.59c3.76-17.55 7.11-33.16 10.62-49.54-7.35-1.46-14.39-2.86-22.56-4.49-2.27 8.11-6.93 14.64-12.68 20.55-3.93 2.92-12.71-1.42-6.97-6.38 11.08-7.13 4.95-28.01 19.95-23.65 22.07 4.1 44.06 8.77 66.1 12.97 5.96 1.47 7.17 3.16 5.4 8.8-1.75 5.56-2.41 10.88-1.07 16.64.39 1.68-2.02 3.95-3.14 5.96-9.9-3.05-8.19-14.14-7.34-22.59-8.81-1.74-17.17-3.38-26.44-5.21-10.45 32.14-14.12 65.24-24.35 97.66 3.57 2.86 8.7 5.73 11.23 9.7 2.82 7.64-6.75 7.73-10.53 3.21-9.83-9.2-21.01-.4-27.69-7.63-1.42-8.01 10.52-6.08 16.26-7.61 5.19-12.22 7.81-25.33 10.88-38.69-6.46-2.26-19.05-6.31-13.63-14.75 5.44-2.3 9.85 2.49 15.98 5.04ZM197.23 271.95c2.65-.9 5.04-2.16 7.53-2.38 4.17-.48 6.96 4.05 4.35 7.05-5.8 3.65-9.42 8.41-11.09 14.83-2.18 3.13-7.88 1.8-8.15-2.14 3.02-10.96-5.91-16.38-11.68-23.16-5.57-6.55-11.55-12.8-16.58-18.35-7.34.49-21.1 8.72-23.32-.84-.09-6.75 9.77-4.52 15.93-7.21-9.38-10.98-17.85-20.36-26.53-29.65-3.3.49-6.3 1.57-9.06 1.15-4.83-1.19-8.14-5.37-2.26-8.63 15.68-2.79 9.2-14.05 18.53-15.27 3.97-.13 4.36 4.37 3.69 7.27-4.88 8.08.45 13.14 5.58 18.73 17.96 19.37 34.99 39.34 53.07 58.61ZM59.17 366.3c-6.94 3.49-16.61 16.45-22.57 9.37-4.62-5.16 12.63-13.93 16.94-18.81-7.72-7.03-13.14-11.75-20.48-17.8-5.9-5.14.47-10.25 6.28-7.51 7.52 4.56 11.87 9.26 19.69 15.04 3.3-4.9 4.44-18.02 11.21-15.97 8.94 3.08-.44 14.94-1.63 21.06 17.87 13.86 26.42-7.31 33.31 1.03 2.3 2.9.2 6.15-5.53 9.37-7.72 4.35-15.94 5.38-25.76 2.19 1.99 9.78 7.32 21.37 1.95 30.03-3.48 4.07-12.04 3.47-9.08-3.37 3.79-8.97-.84-16.3-4.35-24.63ZM1067.09 444.18c-5.66 5.08-8.59 10.3-6.83 17.24 2.61 7.55-9.66 9.25-9.73 1.81-.29-6.09.25-12.21.47-19.09-6.56.62-37.34-1.56-29-13.49 9.87-4.03 10.06 9.43 34.43 1.49-1.72-7.19-9.16-15.64-3.36-21.8 8.15-3.55 10.11 12.89 13.82 18.79 8.46-4.68 14.15-9.29 21.94-12.84 5.02-.99 8.47 2.88 5.47 7.22-6.23 5.54-11.89 8.15-19.46 13.36 4.62 4.38 19.99 9.12 15.62 15.37-5.12 7.27-17.19-5.41-23.38-8.06ZM504.48 92.07c6.85-2.01 12.15-3.39 17.31-5.15 3.38-1.16 6.66-2.19 8.34 1.79 3.3 8.96-16.57 9.86-22.97 13.27 1.69 6.57 5.38 12.05 12 15.56 8.84 2.94 2.45 13.38-5.26 8.29-5.27-3.57-9.7-8.24-14.98-12.86-13.62 20.48-28.16 10.74-19.1 4.59 6.1-3.81 10.4-8.63 11.13-16.73-5.05-2.33-21.98-3.18-19.55-11.23 2.02-7.22 14.69.59 20.82.51.34-8.45-.68-15.01.32-22.52 2.61-6 7.28-4.26 9.45.11 1.33 8.93.64 14.47 2.51 24.36ZM985.82 312.96c-10.73 0-13.83-8.21-2.98-11.11 12.31-4.94 21.86-12.6 27.51-24.36 2.47-5.14 13.01-7.76 17.61-4.69 2.9 1.93 3.07 6.18-.87 9.84-12.8 10.6-24.79 26.05-41.28 30.33ZM575.01 836.92c-20.93 3.88-25.12 23.25-31.41 39.93-8.24 17.3-22.68 35.23-44.27 29.79-16-3.24-30.47-1.36-44.62 6.96-23.89 14.68-44.31-6.88-55.89-26.89-8.41-11.76-27.68-25.63-40.9-12.5-5.35 5.4-12.01 9.81-18.64 13.84-3.46 2.1-8.04 3.01-12.22 3.36-5.12-.24-9.42-7.74-1.55-8.96 16.48-3.4 26.66-14.56 35.6-26.79 33.67-55.04 79.81-108.51 151.24-80.1 27.39 9.9 45.49 32.47 66.69 51.04 9.64 8.64 21.27 15.26 33.91 18.87 5.7 4.2 4.72 10.77-2.98 8.83-12.82-3.51-23.86-10.27-34.96-17.39Zm-26.54 3.43c-53.05 18.21-98.16 34.71-155.25 24.85 8.55 7.71 13.28 19.95 26.24 18.32 25.24-1.94 50.75-1.86 75.33-8.8 11.01-3.11 21.83-6.92 32.95-9.61 13.69-3.02 13.42-13.83 20.74-24.76Zm-72.6-62.12c1.74 9.34-1.89 25.68 5.91 31.28 7.94 4.78 37.07-.96 42.89-8.12 11.94-13.68-38.23-24.27-48.8-23.16Zm-75.66 39.64c26.26 4.91 46.52-.76 37.86-31.51-14.69 7.95-27.54 16.84-37.86 31.51ZM408.06 454.55c4.91-56.67 34.38-109.04 34.31-166.02-.91-3.5 2.25-7.57 4.99-8.58 3.58-.64 5.36 2.12 5.14 5.35.89 38.64-13.32 74.45-22.47 111.38-3.29 13.36-5.27 27.07-6.87 40.73-.95 8.09.54 8.74 10.31 9.05 14.09-34.09 28.98-67.96 41.98-102.48 5.14-14.01 8.36-28.39 7.38-43.42-.2-3.05.03-6.45 1.33-9.13 20.15-18.08 3.36 54.66-.87 60.85-13.09 33.64-30.63 65.44-37.07 101.24 23-24.11 35.49-54.93 53.81-82.46 11.92-20.22 19.63-41.81 20.63-65.23-.74-4.36 3.37-5.72 6.19-7.97 1.51 1.82 4.33 3.67 4.3 5.47-2.12 63.17-51.05 109.87-75.67 164.94 3.69 3.95 7.55 5.08 11.19 1.22 18.31-19.39 41.48-33.07 63.03-48.66 31.22-22.84 57.51-60.45 50.62-100.42-1.3-3.38 1.49-6.69 4.26-7.89 1.1-.34 4.04 1.46 4.4 2.74 9.3 34.38-7.69 67.7-30.63 93.27-12.87 14.16-28.74 25.03-44.93 35.47-35.83 23.52-70.46 60.15-68.28 105.27 1.54 12.25-8 10.75-13.65 2.74-58.54-63.69-30.98-149.89-15.85-224.65 2.3-11.62 1.32-23.13-1.55-34.56-2.22-4.78-1.17-8.5 2.53-12.15 1.97 1.33 5.31 2.39 5.68 4.05 1.91 8.57 3.77 17.25 4.31 25.96-.73 48.42-22.08 95.16-20.5 143.79.66.04 1.31.08 1.97.11Zm20.57 5.57c-.51.07-1.03.14-1.54.22-.1 1.69-.2 3.37-.42 7 2.79-3.9 2.67-3.71 1.96-7.21ZM687.78 784.8c-38.99-5.41-47.87-44.06-55.99-76.44-2.22-7.19-5.24-14.16-7.96-21.2-2.1-3.9-4.61-9.75.48-12.63 3.3-1.73 5.69.45 7.64 2.63 20.49 25.07 55.82 27.86 79.58 48.18 24.52 20.96 12.96 60.81-23.75 59.46ZM808.04 618.08c-7.03-8.31-6.68-17.28-8.8-26.45-6.81 6.52-8.72 13.87-8.72 22.28-.93 1.7-2.75 4.08-4.22 4.1-3.43-.41-6.39-4.34-5.65-8.13-2.18-43.16 71.51-55.99 71.21-7.18-6.97 52.68-55.85 17.79-49.1 97.33-.17 9.06-10.66 20.34-20.08 15.38-4-6.81 8.34-31.98 9.03-41.92 2.36-11.3 6.2-21.77 13.25-31.09 3.59-4.74 5-9.9 2.07-14.88-2.35-4-1.84-6.87 1.01-9.45ZM275.64 797.63c-.39-21.8 11.06-35.55 22.86-51.03 8.32-9.83 14.38-20.99 19.06-32.63 4.1-3.59 11.7-3.68 9.29 3.41-9.5 24.17 7.5 47.26 4.67 71.97-.15 18.27-19.15 40.37-39.1 33.14-11.05-3.64-17.16-14.25-16.78-24.85ZM622.42 741.83c-5.01 39.15-47.38 29.34-54.1-1.83-2.89-19.58-1.61-40.06-1.89-59.87 1.58-6.86 9.13-3.82 10.94 1.28 5.04 9.74 12.8 17.4 20.69 25.07 10.75 10.04 20.55 20.88 24.37 35.35Z" class="cls-1"/><path d="M652.44 842.4c-4.14 4.45-8.57 5.87-13.32 2.25-16.26-13.17-32.21-26.69-48.48-39.85-20.44-14.59-33.33-17.13-48.55-39.99-9.55-12.61-14.12-27.17-22.33-40.15-4.28-7.28-3.81-17.23-8.99-24.29-1.68-2.3-3.31-4.63-.59-6.43 8.11-4.39 15.05 5.7 20.24 10.48 7.19 8.79 11.19 19.15 13.89 29.94 11.61 77.26 80.66 38.6 108.13 108.04ZM614.44 650.67c-3.31 8.11-25.12 3.65-32.78 4.72-7.86.53-15.64 2.12-23.49 2.9-9.47.95-17.39 4.16-24.48 10.6-8.94 7.79-22.28 12.78-34.44 11.84-6.78-2.99-3.84-9.23 2.9-9.24 44.69-4.85 44.88-63.63 101.46-39.59 15.58 7.7 29.18 19.53 47.83 18.26 8.51-.15 11.48 1.53 10.61 5.2-1.36 5.77-6.7 4.28-10.6 4.09-12.97-.15-25.24-3.56-37.02-8.78ZM384.21 719.46c-7.29 21.67-14.32 44.11-14.63 67.12-2.44 29.79-12.99 61.94-38.07 80.31-19.52 4.86-3.06-24.09 3.08-30.09 25.68-28.63 23.81-39.47 22.13-75.85-.3-14.92 3.8-28.56 13.64-40.39 3.35-4.89 13.01-11.71 13.85-1.1ZM409.07 733.18c-26.64-13.91-13.54-45.39 13.55-44.13 4.85 1.61 8.02 5.15 1.81 8.78-10.13 4.8-20.35 23.13-5.8 28.51 8.74 3.37 16.59 9.28 20.61 17.69 3.95 8.48-.25 17.92-8.47 21.47-19.95 8.2-36.26-16.49-21.7-32.32ZM488.54 732.75c13.38 22.18-15.66 38.82-31.12 21.39-5.62-6.76-4.37-16.45 3.38-21.49 8.8-5.62 30.35-8.53 19.48-22.75-4.25-5.71-7.73-12.46-15.61-15.12-1.35-.45-2.87-2.9-2.71-4.25 5.47-12.37 32.75 1.28 35.25 12.98 5.05 11.62-.14 20.7-8.67 29.25ZM779.8 653.69c.72 10.08-9.63 39.46-23.11 31.04-.79-.59-.27-4.43.94-5.51 15.2-13.61 13.66-29.24 6.61-45.65-2.27-2.58-.67-5.54-.27-8.5 13.78-.57 13.36 18.87 15.83 28.62ZM698.63 679.07c-3.11 3.56-6.13 5.63-10.59 3.53-7.5-3.16-14.88-6.55-22.28-9.92-7.9-2.76-2.78-12.12 4.1-8.43 9.35 4.99 21.91 6.57 28.76 14.82ZM686.14 662.15c-6.47.09-12.92 1.62-17.07-4.66 1.7-1.55 3.29-4.3 5.12-4.45 8.16-.67 16.41-.87 24.6-.62 2 .06 5.18 2.21 5.61 3.91.25 8.33-12.9 4.39-18.26 5.22v.6ZM701.05 637.6c-8.73 4.35-17.7 8.2-26.51 12.39-2.74 1.29-5.24 1.26-6.87-1.33-1.91-3.04-.47-5.58 2.49-7.01 5.94-1.5 28.41-18.09 28.9-5.92.66.62 1.32 1.25 1.98 1.87ZM738.27 786.97c-3.45-6.41-8.69-13.91.72-13.96 7.95 2.64 3.84 8.16-.72 13.96ZM782.06 821.04c-12.46 11.58-17.89.35-8.11-3.65 1.7-.36 3.96 1.66 8.11 3.65ZM675.53 692.1c-6.06 5.63-6.58 4.91-11.64.23 4.49-6.48 5.33-5.3 11.64-.23ZM675.71 810.29c-2.49-2.73-4.46-4.02-5.02-5.72-.88-2.67 2.38-6.14 5.1-5.37 6.35 2.72 3.84 6.06-.07 11.09ZM311.38 837.79c-3.34 2.45-5.22 4.56-7.55 5.21-9.21-2.86-3.12-14.88 7.55-5.21ZM737.69 753.07c-4.24-4.41-6.88-7.49-.63-10.29 2.84-.89 6.18 2.1 5.37 4.7-.52 1.68-2.44 2.97-4.75 5.59ZM774.27 757.07c-9.76 10.96-17.03.57-6.47-3.77 1.34-.34 3.4 1.88 6.47 3.77Z" class="cls-1"/><path d="M586.82 774.4c-4.11 4.48-6.98 6.17-10.25 1.01-1.04-2.85 1.21-5.04 4.11-4.9 1.78.08 3.47 2.1 6.14 3.89ZM750.7 701.05c-5.14 4.21-8.42 7.43-11.61 1.48 2.1-7.35 5.03-5.74 11.61-1.48ZM722.78 804.58c-3.63 1.98-5.79 3.82-8.17 4.15-8.65-4.18-1.16-14.61 8.17-4.15ZM280.09 851.8c-6.18 2.74-10.11 4.85-11.61-1.59 4.07-6.32 6.33-4.38 11.61 1.59ZM674.38 829.04c-3.34 1.86-5.33 3.81-7.31 3.79-8.42-4.51-1.69-14.49 7.31-3.79ZM747.55 822.66c-12.4-10.72-.32-15.44 3.42-7.82.19 1.88-1.59 3.95-3.42 7.82ZM260.26 830.31c-4.1-5.63-7.04-8.93-.11-11.15 7.12 2.07 4.15 5.39.11 11.15ZM558.31 750.14c-10.03-9.42 1.22-14.49 4.88-6.19-.3 1.86-2.56 3.44-4.88 6.19ZM619.92 705.38c-6.04 4.78-7.87 5.04-11-.86 3.04-6.1 5.92-3.41 11 .86ZM341.07 751.21c-4.06-5.73-6.73-9.16.08-11.28 6.71 2.13 3.91 5.65-.08 11.28ZM632.05 792.6c-5.19 6-6.44 6.58-10.63.93 1.6-6.69 5.28-4.14 10.63-.93ZM771.52 784.25c5.34 6.07 5.45 7.31-.92 10.23-6.15-2.85-3.41-5.42.92-10.23ZM353.72 788.2c-8.45 11.2-16.3 1.48-6.3-3.55 1.14-.4 3.27 1.75 6.3 3.55ZM279.42 738.46c2.01 2.61 3.96 4.06 4.22 5.74.43 2.74-1.53 5.03-4.58 4.29-5.52-2.89-3.99-5.49.36-10.03ZM601.5 676.91c-5.01 4.67-7.67 6.69-11.08 1.28 1.26-6.7 5.45-4.27 11.08-1.28ZM266.55 785.21c-2.38-2.5-4.71-3.86-4.81-5.35 1.71-9.25 13.86-4.71 4.81 5.35ZM554.51 696.59c-5.38 3.58-8.1 4.98-10.15-.98 3.15-5.63 5.5-3.64 10.15.98ZM638.84 749c-5.45 3.73-8.08 5.15-10.18-1.03 2.71-5.14 5.68-2.6 10.18 1.03ZM716.83 715.14c-6.63-5.13-5.57-5.03-.55-9.66 5.5 3.66 5 4.3.55 9.66ZM647.33 775.39c-4.73 4.79-6.28 4.94-9.39.1 2.1-5.25 4.94-3.23 9.39-.1ZM330.01 826.42c-4.46-4.61-6.32-6.97-.39-9.49 5.94 2.22 4.5 4.55.39 9.49Z" class="cls-1"/></g></svg>